<svg width="870" height="1080" viewBox="0 0 870 1080" fill="none" xmlns="http://www.w3.org/2000/svg">
<path d="M-268.666 -154.114C-124.851 89.6681 260.73 468.225 652.531 32.1976" stroke="#9EB7E5" stroke-width="1.31175"/>
<path d="M-261.52 -130.917C-108.36 107.106 291.609 470.427 666.209 19.535" stroke="#9EB7E5" stroke-width="1.31175"/>
<path d="M-254.371 -107.719C-92.0972 124.185 321.659 471.724 678.494 6.64611" stroke="#9EB7E5" stroke-width="1.31175"/>
<path d="M-247.226 -84.522C-76.0816 140.916 350.84 472.15 689.372 -6.4148" stroke="#9EB7E5" stroke-width="1.31175"/>
<path d="M-240.079 -61.3247C-60.3224 157.307 379.121 471.738 698.843 -19.5932" stroke="#9EB7E5" stroke-width="1.31175"/>
<path d="M-232.933 -38.1274C-44.8336 173.37 406.472 470.525 706.901 -32.8344" stroke="#9EB7E5" stroke-width="1.31175"/>
<path d="M-225.786 -14.9302C-29.6277 189.115 432.861 468.546 713.546 -46.0835" stroke="#9EB7E5" stroke-width="1.31175"/>
<path d="M-218.64 8.26709C-14.7168 204.552 458.259 465.841 718.778 -59.2858" stroke="#9EB7E5" stroke-width="1.31175"/>
<path d="M-211.494 31.4648C-0.113636 219.695 482.638 462.447 722.599 -72.3859" stroke="#9EB7E5" stroke-width="1.31175"/>
<path d="M-204.348 54.6621C14.1726 234.555 505.974 458.405 725.017 -85.3304" stroke="#9EB7E5" stroke-width="1.31175"/>
<path d="M-197.201 77.8594C28.1301 249.143 528.241 453.756 726.036 -98.0643" stroke="#9EB7E5" stroke-width="1.31175"/>
<path d="M-190.055 101.057C41.7488 263.474 549.418 448.541 725.667 -110.534" stroke="#9EB7E5" stroke-width="1.31175"/>
<path d="M-182.908 124.254C55.0187 277.561 569.482 442.804 723.92 -122.685" stroke="#9EB7E5" stroke-width="1.31175"/>
<path d="M-175.763 147.451C67.9299 291.418 588.414 436.587 720.808 -134.464" stroke="#9EB7E5" stroke-width="1.31175"/>
<path d="M-168.616 170.648C80.4754 305.057 606.197 429.936 716.349 -145.82" stroke="#9EB7E5" stroke-width="1.31175"/>
<path d="M-161.47 193.846C92.6463 318.495 622.815 422.895 710.559 -156.699" stroke="#9EB7E5" stroke-width="1.31175"/>
<path d="M-154.323 217.043C104.435 331.745 638.253 415.509 703.457 -167.052" stroke="#9EB7E5" stroke-width="1.31175"/>
<path d="M-147.177 240.24C115.835 344.822 652.499 407.824 695.065 -176.826" stroke="#9EB7E5" stroke-width="1.31175"/>
<path d="M-140.031 263.438C126.837 357.743 665.541 399.888 685.405 -185.974" stroke="#9EB7E5" stroke-width="1.31175"/>
<path d="M-132.885 286.635C137.44 370.521 677.373 391.746 674.505 -194.445" stroke="#9EB7E5" stroke-width="1.31175"/>
<path d="M-125.738 309.832C147.636 383.173 687.985 383.446 662.39 -202.193" stroke="#9EB7E5" stroke-width="1.31175"/>
<path d="M-118.592 333.029C157.421 395.715 697.374 375.036 649.09 -209.171" stroke="#9EB7E5" stroke-width="1.31175"/>
<path d="M-111.445 356.227C166.79 408.163 705.536 366.562 634.635 -215.333" stroke="#9EB7E5" stroke-width="1.31175"/>
<path d="M-104.3 379.424C175.74 420.532 712.468 358.073 619.057 -220.635" stroke="#9EB7E5" stroke-width="1.31175"/>
<path d="M-97.1533 402.621C184.27 432.84 718.172 349.616 602.392 -225.035" stroke="#9EB7E5" stroke-width="1.31175"/>
<path d="M-90.0049 425.818C192.379 445.102 722.652 341.238 584.677 -228.491" stroke="#9EB7E5" stroke-width="1.31175"/>
<path d="M-82.8584 449.016C200.061 457.336 725.908 332.988 565.945 -230.963" stroke="#9EB7E5" stroke-width="1.31175"/>
<path d="M-75.7129 472.213C207.316 469.556 727.946 324.912 546.236 -232.412" stroke="#9EB7E5" stroke-width="1.31175"/>
<path d="M-68.5664 495.41C214.147 481.781 728.777 317.058 525.593 -232.801" stroke="#9EB7E5" stroke-width="1.31175"/>
<path d="M-61.4199 518.607C220.552 494.026 728.408 309.472 504.056 -232.095" stroke="#9EB7E5" stroke-width="1.31175"/>
<path d="M-54.2734 541.805C226.533 506.308 726.851 302.201 481.668 -230.259" stroke="#9EB7E5" stroke-width="1.31175"/>
<path d="M-47.127 565.002C232.092 518.644 724.119 295.29 458.475 -227.263" stroke="#9EB7E5" stroke-width="1.31175"/>
<path d="M-39.9814 588.199C237.23 531.049 720.227 288.785 434.52 -223.074" stroke="#9EB7E5" stroke-width="1.31175"/>
<path d="M-32.835 611.397C241.952 543.542 715.191 282.731 409.852 -217.665" stroke="#9EB7E5" stroke-width="1.31175"/>
<path d="M-25.6885 634.594C246.261 556.134 709.031 277.169 384.518 -211.011" stroke="#9EB7E5" stroke-width="1.31175"/>
<path d="M-18.542 657.791C250.161 568.845 701.766 272.146 358.567 -203.083" stroke="#9EB7E5" stroke-width="1.31175"/>
<path d="M-11.3955 680.988C253.656 581.69 693.417 267.703 332.05 -193.861" stroke="#9EB7E5" stroke-width="1.31175"/>
<path d="M-4.25 704.186C256.752 594.685 684.007 263.882 305.014 -183.323" stroke="#9EB7E5" stroke-width="1.31175"/>
<path d="M2.89648 727.383C259.456 607.844 673.563 260.723 277.515 -171.45" stroke="#9EB7E5" stroke-width="1.31175"/>
<path d="M10.043 750.581C261.775 621.184 662.111 258.267 249.602 -158.225" stroke="#9EB7E5" stroke-width="1.31175"/>
<path d="M17.1895 773.778C263.714 634.718 649.677 256.55 221.329 -143.633" stroke="#9EB7E5" stroke-width="1.31175"/>
<path d="M24.3359 796.976C265.283 648.46 636.292 255.612 192.749 -127.661" stroke="#9EB7E5" stroke-width="1.31175"/>
<path d="M31.4834 820.173C266.491 662.426 621.988 255.487 163.917 -110.299" stroke="#9EB7E5" stroke-width="1.31175"/>
<path d="M38.6299 843.37C267.344 676.63 606.794 256.212 134.884 -91.5368" stroke="#9EB7E5" stroke-width="1.31175"/>
<path d="M45.7744 866.567C267.851 691.084 590.744 257.82 105.705 -71.3689" stroke="#9EB7E5" stroke-width="1.31175"/>
<path d="M52.9229 889.765C268.028 705.802 573.878 260.344 76.4395 -49.79" stroke="#9EB7E5" stroke-width="1.31175"/>
<path d="M60.0684 912.962C267.878 720.797 556.226 263.814 47.1358 -26.7981" stroke="#9EB7E5" stroke-width="1.31175"/>
<path d="M67.2148 936.159C267.417 736.081 537.828 268.261 17.8525 -2.39265" stroke="#9EB7E5" stroke-width="1.31175"/>
<path d="M74.3613 959.356C266.655 751.666 518.723 273.712 -11.3566 23.4245" stroke="#9EB7E5" stroke-width="1.31175"/>
<path d="M81.5078 982.554C265.604 767.563 498.949 280.195 -40.4368 50.6494" stroke="#9EB7E5" stroke-width="1.31175"/>
<path d="M88.6543 1005.75C264.275 783.783 478.548 287.734 -69.3335 79.276" stroke="#9EB7E5" stroke-width="1.31175"/>
<path d="M95.7998 1028.95C262.682 800.338 457.558 296.353 -97.9936 109.296" stroke="#9EB7E5" stroke-width="1.31175"/>
<path d="M102.946 1052.15C260.839 817.236 436.026 306.074 -126.361 140.699" stroke="#9EB7E5" stroke-width="1.31175"/>
<path d="M110.093 1075.34C258.758 834.488 413.993 316.917 -154.384 173.473" stroke="#9EB7E5" stroke-width="1.31175"/>
<path d="M117.239 1098.54C256.453 852.102 391.503 328.901 -182.009 207.604" stroke="#9EB7E5" stroke-width="1.31175"/>
<path d="M124.386 1121.74C253.939 870.086 368.6 342.042 -209.184 243.075" stroke="#9EB7E5" stroke-width="1.31175"/>
<path d="M131.531 1144.93C251.229 888.449 345.329 356.356 -235.858 279.867" stroke="#9EB7E5" stroke-width="1.31175"/>
<path d="M138.678 1168.13C248.34 907.198 321.737 371.856 -261.978 317.961" stroke="#9EB7E5" stroke-width="1.31175"/>
<path d="M145.824 1191.33C245.287 926.339 297.87 388.554 -287.496 357.333" stroke="#9EB7E5" stroke-width="1.31175"/>
<path d="M152.971 1214.53C242.083 945.879 273.774 406.46 -312.362 397.96" stroke="#9EB7E5" stroke-width="1.31175"/>
<path d="M160.117 1237.72C238.746 965.823 249.497 425.58 -336.529 439.814" stroke="#9EB7E5" stroke-width="1.31175"/>
<path d="M167.264 1260.92C235.29 986.176 225.085 445.923 -359.948 482.869" stroke="#9EB7E5" stroke-width="1.31175"/>
<path d="M174.409 1284.12C231.731 1006.94 200.585 467.491 -382.575 527.095" stroke="#9EB7E5" stroke-width="1.31175"/>
<path d="M181.556 1307.32C228.087 1028.13 176.047 490.287 -404.364 572.458" stroke="#9EB7E5" stroke-width="1.31175"/>
<path d="M188.702 1330.51C224.373 1049.73 151.517 514.313 -425.271 618.928" stroke="#9EB7E5" stroke-width="1.31175"/>
<path d="M195.85 1353.71C220.606 1071.75 127.044 539.566 -445.254 666.467" stroke="#9EB7E5" stroke-width="1.31175"/>
<path d="M202.996 1376.91C216.801 1094.2 102.673 566.043 -464.273 715.04" stroke="#9EB7E5" stroke-width="1.31175"/>
<path d="M210.143 1400.1C212.975 1117.08 78.4537 593.74 -482.289 764.609" stroke="#9EB7E5" stroke-width="1.31175"/>
<path d="M217.289 1423.3C209.145 1140.38 54.4322 622.651 -499.263 815.134" stroke="#9EB7E5" stroke-width="1.31175"/>
<path d="M224.436 1446.5C205.327 1164.1 30.6556 652.765 -515.16 866.573" stroke="#9EB7E5" stroke-width="1.31175"/>
<path d="M231.581 1469.7C201.537 1188.26 7.16942 684.074 -529.945 918.885" stroke="#9EB7E5" stroke-width="1.31175"/>
<path d="M238.728 1492.89C197.793 1212.83 -15.9782 716.563 -543.584 972.025" stroke="#9EB7E5" stroke-width="1.31175"/>
<path d="M245.874 1516.09C194.11 1237.82 -38.7426 750.221 -556.046 1025.95" stroke="#9EB7E5" stroke-width="1.31175"/>
<path d="M253.021 1539.29C190.506 1263.24 -61.0791 785.03 -567.302 1080.61" stroke="#9EB7E5" stroke-width="1.31175"/>
<path d="M260.167 1562.49C186.995 1289.07 -82.9431 820.974 -577.324 1135.96" stroke="#9EB7E5" stroke-width="1.31175"/>
<path d="M267.313 1585.68C183.595 1315.31 -104.291 858.033 -586.086 1191.95" stroke="#9EB7E5" stroke-width="1.31175"/>
<path d="M274.459 1608.88C180.319 1341.95 -125.081 896.187 -593.566 1248.54" stroke="#9EB7E5" stroke-width="1.31175"/>
<path d="M281.605 1632.08C177.187 1369 -145.269 935.412 -599.739 1305.66" stroke="#9EB7E5" stroke-width="1.31175"/>
</svg>
