<svg width="378" height="521" viewBox="0 0 378 521" fill="none" xmlns="http://www.w3.org/2000/svg">
<path d="M725.862 220.031C712.164 122.371 574.718 60.3711 471.456 61.6182C352.458 63.0675 307.608 148.172 217.05 122.287C134.41 98.6935 129.541 15.7123 68.7869 2.63481C12.9524 -9.38095 -75.3989 40.7886 -221 289.126" stroke="#FFFFAC" stroke-opacity="0.5" stroke-width="1.21124" stroke-miterlimit="10"/>
<path d="M-214.059 300.129C-70.2272 55.3812 18.1746 3.27357 74.801 13.0648C116.77 20.3788 132.944 60.6728 165.781 92.17C182.17 108.383 202.328 120.272 224.446 126.768C296.892 148.103 340.074 100.883 417.491 80.6261C437.224 75.4032 457.502 72.5185 477.908 72.0314C581.591 69.217 717.505 122.959 733.325 217.063" stroke="#FFFFAC" stroke-opacity="0.5" stroke-width="1.21124" stroke-miterlimit="10"/>
<path d="M-207.1 311.1C-65.0375 69.9588 23.3644 15.93 80.6647 23.5136C122.785 29.0917 139.919 67.4647 172.824 97.3608C189.606 112.991 209.734 124.582 231.674 131.251C303.076 152.94 346.241 110.405 423.927 91.0917C443.67 86.1421 463.872 83.2505 484.21 82.4633C588.331 78.4019 722.694 123.549 740.638 214.097" stroke="#FFFFAC" stroke-opacity="0.5" stroke-width="1.21124" stroke-miterlimit="10"/>
<path d="M-200.16 322.035C-59.8993 84.5506 28.5531 28.6175 86.5947 33.9429C128.9 37.8189 146.928 74.237 179.95 102.549C197.088 117.587 217.171 128.888 238.918 135.731C309.343 157.774 352.339 119.907 430.38 101.555C450.141 96.834 470.29 93.9178 490.578 92.842C595.12 87.3481 727.934 124.086 748 211.078" stroke="#FFFFAC" stroke-opacity="0.5" stroke-width="1.21124" stroke-miterlimit="10"/>
<path d="M-193.218 333.057C-54.727 99.1285 33.7086 41.3248 92.5421 44.392C134.982 46.5828 153.987 81.0459 187.11 107.723C204.617 122.177 224.691 133.199 246.281 140.215C315.728 162.612 358.607 129.429 437.035 112.021C456.774 107.576 476.826 104.657 497.014 103.291C601.994 96.3648 733.258 124.711 755.463 208.147" stroke="#FFFFAC" stroke-opacity="0.5" stroke-width="1.21124" stroke-miterlimit="10"/>
<path d="M-186.345 344.041C-49.5722 113.702 38.9139 52.3933 98.4887 54.8201C141.013 56.5053 161.046 87.7328 194.236 112.91C212.104 126.753 232.168 137.497 253.592 144.694C322.063 167.445 364.789 138.947 443.487 122.499C463.22 118.285 483.204 115.347 503.314 113.702C608.733 105.276 738.446 125.28 762.775 205.177" stroke="#FFFFAC" stroke-opacity="0.5" stroke-width="1.21124" stroke-miterlimit="10"/>
<path d="M-179.318 355.032C-44.399 128.3 44.0198 66.8562 104.42 65.171C147.079 64.1935 168.14 94.5279 201.381 118.121C219.588 131.349 239.645 141.82 260.905 149.197C328.398 172.302 371.024 148.472 450.008 132.985C469.736 129.022 489.654 126.075 509.684 124.154C615.54 114.296 743.703 125.84 770.155 202.232" stroke="#FFFFAC" stroke-opacity="0.5" stroke-width="1.21124" stroke-miterlimit="10"/>
<path d="M-172.377 366.02C-39.2776 142.878 49.1579 79.5296 110.367 75.7041C153.127 72.974 175.266 101.168 208.524 123.295C227.057 135.895 247.115 146.088 268.217 153.63C334.716 177.105 377.24 157.977 456.528 143.4C474.976 140.03 494.672 136.794 516.052 134.519C622.363 123.177 748.96 126.447 777.534 199.249" stroke="#FFFFAC" stroke-opacity="0.5" stroke-width="1.21124" stroke-miterlimit="10"/>
<path d="M-165.436 377.008C-34.0715 157.471 54.2967 92.3873 116.298 86.1014C159.176 81.7703 182.409 107.824 215.701 128.451C234.56 140.416 254.631 150.353 275.579 158.095C341.101 181.924 383.491 167.448 463.098 153.865C481.631 150.697 501.276 147.495 522.488 144.933C629.102 132.125 754.216 127.036 784.913 196.266" stroke="#FFFFAC" stroke-opacity="0.5" stroke-width="1.21124" stroke-miterlimit="10"/>
<path d="M-158.477 387.978C-28.8984 172.048 59.4361 105.211 122.246 96.5829C165.225 90.6678 189.638 114.514 222.795 133.658C241.955 144.981 262.036 154.667 282.825 162.611C347.387 186.794 389.658 177.003 469.569 164.296C488.102 161.33 507.763 158.128 528.807 155.297C635.977 140.938 759.474 127.524 792.294 193.215" stroke="#FFFFAC" stroke-opacity="0.5" stroke-width="1.21124" stroke-miterlimit="10"/>
<path d="M-151.536 398.968C-23.7431 186.628 64.5745 118.072 128.142 107.017C171.223 99.5344 196.748 121.139 229.905 138.868C249.362 149.525 269.468 158.952 290.103 167.096C353.671 191.633 395.825 186.51 476.055 174.848C494.672 172.118 514.283 168.899 535.141 165.815C642.75 149.906 764.679 128.2 799.656 190.335" stroke="#FFFFAC" stroke-opacity="0.5" stroke-width="1.21124" stroke-miterlimit="10"/>
<path d="M-144.595 409.956C-18.5711 201.222 69.7465 130.931 134.123 117.449C177.321 108.416 203.975 127.746 237.065 144.059C256.086 153.429 275.563 162.883 297.448 171.579C360.039 196.453 402.075 196.032 482.609 185.313C501.276 182.802 520.854 179.567 541.577 176.23C649.623 158.771 770.003 128.774 807.086 187.369" stroke="#FFFFAC" stroke-opacity="0.5" stroke-width="1.21124" stroke-miterlimit="10"/>
<path d="M-137.653 420.941C-13.3988 215.864 74.8009 143.82 140.053 127.894C183.37 117.294 211.203 134.315 244.208 149.246C263.685 158.06 283.212 167.244 304.76 176.058C366.374 201.337 408.275 205.533 489.129 195.776C507.847 193.501 527.408 190.248 547.912 186.642C656.38 167.598 775.226 129.343 814.431 184.4" stroke="#FFFFAC" stroke-opacity="0.5" stroke-width="1.21124" stroke-miterlimit="10"/>
<path d="M-130.746 431.927C-8.24362 230.389 80.0403 156.727 145.984 138.341C189.418 126.224 218.43 140.869 251.352 154.452C271.3 162.676 290.86 171.608 312.005 180.557C372.658 206.139 414.407 215.07 495.649 206.273C514.434 204.2 533.944 200.931 554.28 197.089C663.186 176.428 780.482 129.915 821.811 181.433" stroke="#FFFFAC" stroke-opacity="0.5" stroke-width="1.21124" stroke-miterlimit="10"/>
<path d="M-123.753 442.903C-3.06992 244.971 85.1635 169.675 151.932 148.778C195.502 135.127 225.676 147.379 258.48 159.631C278.899 167.248 298.528 175.96 319.385 185.027C379.028 210.963 420.693 224.563 502.17 216.726C521.815 214.632 541.339 211.532 560.667 207.441C669.977 185.246 785.791 130.526 829.191 178.455" stroke="#FFFFAC" stroke-opacity="0.5" stroke-width="1.21124" stroke-miterlimit="10"/>
<path d="M-116.812 453.889C2.10195 259.564 90.4196 182.566 157.812 159.208C201.516 144.041 232.87 153.866 265.64 164.82C286.531 171.814 306.193 180.308 326.697 189.509C385.379 215.799 426.909 234.084 508.656 227.191C528.284 225.351 547.772 222.25 567.001 217.905C676.766 193.958 790.996 131.099 836.587 175.42" stroke="#FFFFAC" stroke-opacity="0.5" stroke-width="1.21124" stroke-miterlimit="10"/>
<path d="M-109.871 464.876C7.25721 274.14 95.6759 195.574 163.81 169.639C207.615 152.988 240.165 160.319 272.766 169.993C294.129 176.346 313.825 184.671 333.992 193.99C391.68 220.634 433.109 243.587 515.21 237.655C534.819 236.048 554.275 232.927 573.403 228.319C683.539 202.787 796.253 131.687 843.966 172.52" stroke="#FFFFAC" stroke-opacity="0.5" stroke-width="1.21124" stroke-miterlimit="10"/>
<path d="M-102.912 475.864C12.4302 288.802 100.798 208.534 169.741 180.087C213.731 161.92 247.41 166.74 279.893 175.183C301.796 180.862 321.474 189.019 341.305 198.473C398.015 225.437 439.31 253.109 521.731 248.137C541.32 246.753 560.745 243.612 579.772 238.75C690.313 211.551 801.51 132.26 851.346 169.554" stroke="#FFFFAC" stroke-opacity="0.5" stroke-width="1.21124" stroke-miterlimit="10"/>
<path d="M-95.9707 486.852C17.5179 303.313 106.021 221.528 175.688 190.587C219.83 170.937 254.638 173.212 287.037 180.476C309.36 185.531 329.157 193.486 348.616 203.058C404.35 230.409 445.526 262.732 528.25 258.671C547.819 257.51 567.216 254.347 586.14 249.233C697.085 220.348 806.85 132.952 858.725 166.657" stroke="#FFFFAC" stroke-opacity="0.5" stroke-width="1.21124" stroke-miterlimit="10"/>
<path d="M-89.0303 497.837C22.7567 317.904 111.26 234.518 181.617 200.965C225.944 179.815 261.865 179.512 294.179 185.562C316.975 189.842 336.788 197.746 355.927 207.47C410.667 235.175 451.726 272.166 534.77 269.099C554.317 268.17 573.691 264.986 592.508 259.611C703.84 228.991 812.022 133.421 866.104 163.62" stroke="#FFFFAC" stroke-opacity="0.5" stroke-width="1.21124" stroke-miterlimit="10"/>
<path d="M-82.0713 508.809C27.9298 332.482 116.5 247.597 187.498 211.398C231.994 188.782 269.009 185.866 301.239 190.753C324.506 194.276 344.37 202.095 363.156 211.903C416.935 239.979 457.876 281.655 541.223 279.532C560.752 278.817 580.11 275.611 598.827 269.993C710.462 237.502 817.212 134.011 873.451 160.638" stroke="#FFFFAC" stroke-opacity="0.5" stroke-width="1.21124" stroke-miterlimit="10"/>
<path d="M-75.147 519.798C100.477 239.458 224.614 186.171 308.45 195.946C399.969 206.613 434.895 291.566 547.811 290.016C680.27 288.179 812.646 130.676 880.863 157.674" stroke="#FFFFAC" stroke-opacity="0.5" stroke-width="1.21124" stroke-miterlimit="10"/>
</svg>
