<svg width="375" height="1012" viewBox="0 0 375 1012" fill="none" xmlns="http://www.w3.org/2000/svg">
<path d="M140.06 681.586C92.8613 782.401 -55.7999 785.692 -124.231 774.736C-348.627 742.973 -172.868 395.603 2.25718 449.873C177.382 504.143 2.883 161.094 109.568 199.089C216.254 237.084 323.524 433.756 319.283 532.583C315.043 631.41 199.058 555.569 140.06 681.586Z" stroke="#9EB7E5" stroke-width="2.16405"/>
<path d="M-28.8224 549.169C-53.726 602.251 -132.063 604.032 -168.118 598.287C-286.352 581.641 -193.624 398.735 -101.361 427.244C-9.09826 455.754 -100.938 275.237 -44.7332 295.202C11.4715 315.167 67.9329 418.656 65.6663 470.679C63.3997 522.701 2.30698 482.817 -28.8224 549.169Z" stroke="#9EB7E5" stroke-width="2.16405"/>
<path d="M131.899 675.302C85.8406 773.832 -59.3684 776.984 -126.216 766.244C-345.417 735.097 -173.889 395.604 -2.80542 448.732C168.278 501.859 -2.32007 166.438 101.905 203.626C206.131 240.815 310.997 433.117 306.898 529.723C302.799 626.329 189.473 552.14 131.899 675.302Z" stroke="#9EB7E5" stroke-width="2.16405"/>
<path d="M123.808 669.017C78.7613 765.258 -63.1423 768.39 -128.463 757.926C-342.662 727.589 -174.914 395.98 -7.74637 447.801C159.422 499.621 -7.16809 172.115 94.6704 208.394C196.509 244.674 298.916 432.436 294.875 526.782C290.834 621.128 180.116 548.717 123.808 669.017Z" stroke="#9EB7E5" stroke-width="2.16405"/>
<path d="M115.854 662.639C71.8952 756.618 -66.6393 759.65 -130.412 749.418C-339.531 719.749 -175.83 395.933 -12.6205 446.574C150.589 497.214 -12.1093 177.34 87.3188 212.79C186.747 248.24 286.76 431.628 282.832 523.765C278.905 615.903 170.802 545.165 115.854 662.639Z" stroke="#9EB7E5" stroke-width="2.16405"/>
<path d="M107.762 656.355C64.8161 748.045 -70.4131 751.056 -132.659 741.1C-336.776 712.241 -176.856 396.309 -17.5613 445.643C141.733 494.977 -16.9573 183.017 80.0838 217.558C177.125 252.1 274.679 430.947 270.81 520.824C266.94 610.702 161.444 541.742 107.762 656.355Z" stroke="#9EB7E5" stroke-width="2.16405"/>
<path d="M99.8108 649.975C57.9528 739.404 -73.9073 742.315 -134.605 732.591C-333.643 704.401 -177.769 396.262 -22.4326 444.415C132.904 492.568 -21.8956 188.241 72.7351 221.953C167.366 255.665 262.525 430.138 258.77 517.807C255.015 605.475 152.133 538.189 99.8108 649.975Z" stroke="#9EB7E5" stroke-width="2.16405"/>
<path d="M91.716 643.691C50.8706 730.83 -77.6841 733.72 -136.856 724.273C-330.891 696.892 -178.798 396.637 -27.3765 443.484C124.045 490.331 -26.7466 193.918 65.4971 226.721C157.741 259.524 250.441 429.457 246.744 514.866C243.047 600.274 142.773 534.767 91.716 643.691Z" stroke="#9EB7E5" stroke-width="2.16405"/>
<path d="M83.7648 637.312C44.0073 722.19 -81.1783 724.979 -138.801 715.764C-327.758 689.052 -179.711 396.59 -32.2478 442.256C115.215 487.923 -31.685 199.142 58.1483 231.116C147.982 263.09 238.288 428.648 234.704 511.848C231.121 595.048 133.462 531.214 83.7648 637.312Z" stroke="#9EB7E5" stroke-width="2.16405"/>
<path d="M75.6055 631.432C36.9598 714.102 -84.8762 716.748 -140.963 707.737C-324.881 681.605 -180.961 396.76 -37.4156 441.334C106.13 485.909 -37.0066 204.482 50.4424 235.684C137.891 266.885 225.877 428.231 222.437 509.286C218.997 590.341 123.913 528.095 75.6055 631.432Z" stroke="#9EB7E5" stroke-width="2.16405"/>
<path d="M67.6657 625.078C30.084 705.435 -88.3634 708.022 -142.889 699.272C-321.688 673.897 -181.734 397.02 -42.1869 440.326C97.3597 483.632 -41.7583 210.115 43.2541 240.431C128.267 270.746 213.784 427.556 210.429 506.338C207.074 585.121 114.643 524.633 67.6657 625.078Z" stroke="#9EB7E5" stroke-width="2.16405"/>
<path d="M59.5634 618.769C23.0181 696.888 -92.1434 699.413 -145.156 690.911C-318.992 666.257 -182.899 397.089 -47.227 439.177C88.4447 481.264 -46.7921 215.384 35.8594 244.847C118.511 274.311 201.643 426.742 198.375 503.329C195.107 579.915 105.245 521.121 59.5634 618.769Z" stroke="#9EB7E5" stroke-width="2.16405"/>
<path d="M51.6205 612.416C16.1393 688.222 -95.6336 690.688 -147.085 682.446C-315.802 658.549 -183.675 397.35 -52.0013 438.168C79.6719 478.987 -51.5469 221.017 28.6682 249.594C108.883 278.171 189.547 426.067 186.364 500.381C183.181 574.695 95.9721 517.658 51.6205 612.416Z" stroke="#9EB7E5" stroke-width="2.16405"/>
<path d="M43.5176 606.107C9.07269 679.675 -99.4143 682.079 -149.352 674.085C-313.107 650.91 -184.84 397.419 -57.042 437.019C70.7562 476.619 -56.5814 226.286 21.2727 254.011C99.1268 281.736 177.406 425.253 174.31 497.371C171.214 569.489 86.5737 514.146 43.5176 606.107Z" stroke="#9EB7E5" stroke-width="2.16405"/>
<path d="M35.5631 599.726C2.20612 671.034 -102.912 673.337 -151.301 665.575C-309.977 643.068 -185.757 397.37 -61.9166 435.79C61.9235 474.21 -61.523 231.509 13.9207 258.405C89.3644 285.301 165.249 424.443 162.267 494.352C159.285 564.262 77.2593 510.592 35.5631 599.726Z" stroke="#9EB7E5" stroke-width="2.16405"/>
<path d="M27.4713 593.443C-4.8731 662.461 -106.686 664.744 -153.549 657.258C-307.222 635.561 -186.782 397.747 -66.8575 434.86C53.0673 471.973 -66.371 237.187 6.68571 263.174C79.7424 289.161 153.168 423.763 150.244 491.413C147.32 559.062 67.9019 507.17 27.4713 593.443Z" stroke="#9EB7E5" stroke-width="2.16405"/>
<path d="M19.5173 587.064C-11.7392 653.821 -110.183 656.003 -155.497 648.749C-304.092 627.721 -187.698 397.699 -71.7316 433.632C44.235 469.565 -71.3122 242.411 -0.665871 267.569C69.9804 292.726 141.011 422.954 138.202 488.395C135.392 553.835 58.5879 503.617 19.5173 587.064Z" stroke="#9EB7E5" stroke-width="2.16405"/>
<path d="M11.2194 580.874C-18.9729 645.318 -114.028 647.442 -157.781 640.448C-301.257 620.176 -188.829 398.124 -76.8609 432.788C35.1072 467.452 -76.422 248.209 -8.21212 272.48C59.9978 296.751 128.56 422.443 125.836 485.611C123.111 548.779 48.9599 500.319 11.2194 580.874Z" stroke="#9EB7E5" stroke-width="2.16405"/>
<path d="M3.26534 574.496C-25.8391 636.679 -117.525 638.701 -159.73 631.94C-298.126 612.337 -189.745 398.077 -81.735 431.561C26.2749 465.045 -81.3632 253.433 -15.5638 276.875C50.2357 300.317 116.404 421.635 113.793 482.595C111.183 543.554 39.6459 496.767 3.26534 574.496Z" stroke="#9EB7E5" stroke-width="2.16405"/>
<path d="M-4.82647 568.21C-32.9184 628.104 -121.299 630.106 -161.978 623.621C-295.371 604.828 -190.771 398.452 -86.676 430.629C17.4186 462.806 -86.2113 259.11 -22.7989 281.642C40.6136 304.175 104.323 420.953 101.77 479.653C99.2174 538.352 30.2884 493.343 -4.82647 568.21Z" stroke="#9EB7E5" stroke-width="2.16405"/>
<path d="M-12.7798 561.833C-39.7838 619.465 -124.795 621.367 -163.925 615.114C-292.24 596.989 -191.686 398.406 -91.5494 429.403C8.58708 460.4 -91.1517 264.335 -30.1497 286.039C30.8524 307.743 92.1671 420.146 89.7285 476.637C87.29 533.128 20.9752 489.792 -12.7798 561.833Z" stroke="#9EB7E5" stroke-width="2.16405"/>
<path d="M-20.8826 555.523C-46.8503 610.918 -128.576 612.757 -166.192 606.752C-289.545 589.349 -192.851 398.474 -96.5899 428.253C-0.328403 458.031 -96.186 269.603 -37.5449 290.455C21.0962 311.307 80.026 419.332 77.6743 473.626C75.3226 527.921 11.577 486.279 -20.8826 555.523Z" stroke="#9EB7E5" stroke-width="2.16405"/>
</svg>
