<svg width="493" height="492" viewBox="0 0 493 492" fill="none" xmlns="http://www.w3.org/2000/svg">
<g clip-path="url(#clip0_1_1336)">
<path d="M0.268555 250.878C16.4827 248.274 34.9144 245.896 55.4673 244.127C119.013 238.972 182.927 240.589 246.132 248.95" stroke="#9EB7E5" stroke-miterlimit="10"/>
<path d="M0.81543 228.793C17.2063 227.668 35.7666 226.945 56.3998 227.041C120.151 227.592 183.662 234.93 245.859 248.933" stroke="#9EB7E5" stroke-miterlimit="10"/>
<path d="M3.35449 206.869C19.7615 207.206 38.3217 208.154 58.8586 210.083C122.306 216.356 184.906 229.363 245.602 248.885" stroke="#9EB7E5" stroke-miterlimit="10"/>
<path d="M7.83887 185.25C24.2458 187.05 42.549 189.654 62.8126 193.431C125.445 205.362 186.629 223.93 245.33 248.821" stroke="#9EB7E5" stroke-miterlimit="10"/>
<path d="M14.2334 164.113C30.3029 167.327 48.4293 171.619 68.2751 177.197C129.563 194.71 188.817 218.687 245.04 248.725" stroke="#9EB7E5" stroke-miterlimit="10"/>
<path d="M22.5107 143.635C38.2428 148.328 55.8871 154.195 75.1705 161.525C134.663 184.452 191.547 213.646 244.864 248.612" stroke="#9EB7E5" stroke-miterlimit="10"/>
<path d="M32.5859 123.993C47.8359 130.085 64.8856 137.495 83.4299 146.496C140.627 174.67 194.667 208.848 244.639 248.451" stroke="#9EB7E5" stroke-miterlimit="10"/>
<path d="M44.3809 105.331C59.0202 112.757 75.3307 121.662 92.9911 132.335C147.43 165.517 198.184 204.398 244.398 248.323" stroke="#9EB7E5" stroke-miterlimit="10"/>
<path d="M57.7979 87.7946C71.714 96.5065 87.1568 106.842 103.789 119.042C155.041 156.977 202.116 200.255 244.22 248.146" stroke="#9EB7E5" stroke-miterlimit="10"/>
<path d="M72.7285 71.5441C85.8252 81.4616 100.272 93.1311 115.747 106.778C163.394 149.156 206.397 196.486 244.029 247.969" stroke="#9EB7E5" stroke-miterlimit="10"/>
<path d="M89.0693 56.6759C101.202 67.7346 114.556 80.6739 128.697 95.6386C172.352 142.122 210.943 193.115 243.819 247.76" stroke="#9EB7E5" stroke-miterlimit="10"/>
<path d="M106.665 43.3026C117.769 55.4061 129.902 69.4867 142.693 85.6729C182.007 135.877 215.874 190.12 243.722 247.487" stroke="#9EB7E5" stroke-miterlimit="10"/>
<path d="M125.386 31.6492C135.365 44.7011 146.276 59.8104 157.525 77.0735C192.164 130.608 221.016 187.674 243.593 247.31" stroke="#9EB7E5" stroke-miterlimit="10"/>
<path d="M145.088 21.6834C153.846 35.5711 163.279 51.5805 172.968 69.792C202.694 126.215 226.332 185.642 243.481 247.069" stroke="#9EB7E5" stroke-miterlimit="10"/>
<path d="M165.657 13.5181C173.146 28.1291 181.1 44.9261 189.119 63.9413C213.663 122.799 231.881 184.101 243.466 246.812" stroke="#9EB7E5" stroke-miterlimit="10"/>
<path d="M186.757 7.21707C192.976 22.4067 199.404 39.8949 205.606 59.537C224.77 120.363 237.418 183.055 243.338 246.554" stroke="#9EB7E5" stroke-miterlimit="10"/>
<path d="M208.386 2.84512C213.207 18.5652 218.027 36.5999 222.479 56.6438C236.145 118.947 243.148 182.528 243.369 246.313" stroke="#9EB7E5" stroke-miterlimit="10"/>
<path d="M230.336 0.434052C233.662 16.5078 236.86 34.8318 239.544 55.2775C247.545 118.547 248.8 182.489 243.288 246.024" stroke="#9EB7E5" stroke-miterlimit="10"/>
<path d="M252.431 0C254.311 16.3148 255.853 34.8317 256.689 55.4543C258.985 119.209 254.492 183.027 243.287 245.831" stroke="#9EB7E5" stroke-miterlimit="10"/>
<path d="M274.416 1.51096C274.817 17.9222 274.705 36.5195 273.693 57.126C270.279 120.805 260.098 183.939 243.321 245.462" stroke="#9EB7E5" stroke-miterlimit="10"/>
<path d="M296.222 5.04721C295.146 21.4424 293.362 39.9432 290.502 60.3729C281.389 123.485 265.595 185.449 243.386 245.221" stroke="#9EB7E5" stroke-miterlimit="10"/>
<path d="M317.61 10.4962C315.071 26.7306 311.632 44.9903 306.955 65.1467C292.224 127.193 270.941 187.498 243.465 245.044" stroke="#9EB7E5" stroke-miterlimit="10"/>
<path d="M338.421 17.8418C334.452 33.7869 329.39 51.6769 322.93 71.2547C302.703 131.735 276.097 189.891 243.562 244.738" stroke="#9EB7E5" stroke-miterlimit="10"/>
<path d="M358.491 27.036C353.092 42.5471 346.455 59.9067 338.26 78.8415C312.688 137.261 280.982 192.797 243.675 244.513" stroke="#9EB7E5" stroke-miterlimit="10"/>
<path d="M377.678 37.9822C370.913 52.9468 362.749 69.6474 352.883 87.8107C322.178 143.667 285.624 196.1 243.835 244.224" stroke="#9EB7E5" stroke-miterlimit="10"/>
<path d="M395.788 50.6001C387.753 64.9057 378.111 80.8026 366.638 97.9693C331.049 150.883 289.937 199.861 243.995 244.079" stroke="#9EB7E5" stroke-miterlimit="10"/>
<path d="M412.694 64.7932C403.373 78.3272 392.35 93.2919 379.382 109.366C339.195 158.873 293.86 203.967 244.141 243.886" stroke="#9EB7E5" stroke-miterlimit="10"/>
<path d="M428.264 80.4489C417.754 93.0829 405.445 107.003 391.127 121.855C346.673 167.56 297.486 208.408 244.396 243.71" stroke="#9EB7E5" stroke-miterlimit="10"/>
<path d="M442.357 97.4388C430.771 109.076 417.257 121.839 401.669 135.341C353.292 176.877 300.636 213.15 244.59 243.549" stroke="#9EB7E5" stroke-miterlimit="10"/>
<path d="M454.909 115.634C442.31 126.195 427.719 137.687 410.975 149.743C359.073 186.775 303.378 218.178 244.832 243.42" stroke="#9EB7E5" stroke-miterlimit="10"/>
<path d="M465.723 134.923C452.257 144.294 436.685 154.436 418.929 164.948C363.916 197.18 305.631 223.464 245.057 243.356" stroke="#9EB7E5" stroke-miterlimit="10"/>
<path d="M474.803 154.983C460.533 163.116 444.126 171.828 425.501 180.701C367.821 207.874 307.413 228.829 245.298 243.211" stroke="#9EB7E5" stroke-miterlimit="10"/>
<path d="M482.049 175.846C467.104 182.662 449.91 189.863 430.626 197.031C370.744 218.917 308.704 234.371 245.554 243.131" stroke="#9EB7E5" stroke-miterlimit="10"/>
<path d="M487.383 197.273C471.892 202.722 454.184 208.364 434.354 213.764C372.749 230.193 309.573 240.021 245.891 243.083" stroke="#9EB7E5" stroke-miterlimit="10"/>
<path d="M490.777 219.085C474.868 223.135 456.725 227.121 436.413 230.754C373.559 241.59 309.731 245.712 246.006 243.051" stroke="#9EB7E5" stroke-miterlimit="10"/>
<path d="M492.206 241.122C475.992 243.726 457.56 246.104 437.007 247.856C373.461 253.018 309.547 251.402 246.343 243.034" stroke="#9EB7E5" stroke-miterlimit="10"/>
<path d="M491.643 263.191C475.268 264.332 456.691 265.055 436.074 264.959C372.318 264.4 308.803 257.061 246.599 243.067" stroke="#9EB7E5" stroke-miterlimit="10"/>
<path d="M489.121 285.131C472.698 284.794 454.154 283.846 433.617 281.917C370.17 275.651 307.569 262.65 246.873 243.131" stroke="#9EB7E5" stroke-miterlimit="10"/>
<path d="M484.636 306.751C468.31 304.95 449.91 302.33 429.646 298.553C367.015 286.626 305.831 268.064 247.129 243.179" stroke="#9EB7E5" stroke-miterlimit="10"/>
<path d="M478.224 327.888C462.155 324.673 444.044 320.365 424.182 314.787C362.894 297.283 303.639 273.311 247.418 243.276" stroke="#9EB7E5" stroke-miterlimit="10"/>
<path d="M469.965 348.349C454.217 343.656 436.589 337.805 417.305 330.475C357.816 307.541 300.932 278.348 247.611 243.388" stroke="#9EB7E5" stroke-miterlimit="10"/>
<path d="M459.889 367.991C444.639 361.899 427.589 354.489 409.045 345.488C351.846 317.318 297.806 283.14 247.836 243.533" stroke="#9EB7E5" stroke-miterlimit="10"/>
<path d="M448.095 386.669C433.439 379.243 417.145 370.322 399.484 359.665C345.04 326.484 294.28 287.602 248.062 243.677" stroke="#9EB7E5" stroke-miterlimit="10"/>
<path d="M434.677 404.205C420.745 395.494 405.302 385.158 388.67 372.958C337.417 335.024 290.347 291.74 248.255 243.838" stroke="#9EB7E5" stroke-miterlimit="10"/>
<path d="M419.731 420.456C406.699 410.539 392.236 398.853 376.729 385.206C329.083 342.833 286.08 295.508 248.446 244.031" stroke="#9EB7E5" stroke-miterlimit="10"/>
<path d="M403.486 435.308C391.338 424.249 378 411.326 363.811 396.345C320.124 349.869 281.506 298.875 248.608 244.224" stroke="#9EB7E5" stroke-miterlimit="10"/>
<path d="M385.809 448.649C374.705 436.546 362.572 422.465 349.781 406.279C310.467 356.075 276.6 301.832 248.752 244.465" stroke="#9EB7E5" stroke-miterlimit="10"/>
<path d="M367.088 460.335C357.109 447.299 346.278 432.19 334.949 414.927C300.296 361.392 271.429 304.327 248.833 244.69" stroke="#9EB7E5" stroke-miterlimit="10"/>
<path d="M347.387 470.317C338.629 456.429 329.196 440.403 319.506 422.192C289.778 365.776 266.141 306.354 248.993 244.931" stroke="#9EB7E5" stroke-miterlimit="10"/>
<path d="M326.883 478.482C319.394 463.855 311.44 447.058 303.421 428.059C278.877 369.201 260.659 307.899 249.074 245.188" stroke="#9EB7E5" stroke-miterlimit="10"/>
<path d="M305.718 484.783C299.58 469.545 293.152 452.105 286.869 432.447C267.731 371.623 255.11 308.938 249.218 245.446" stroke="#9EB7E5" stroke-miterlimit="10"/>
<path d="M284.089 489.155C279.268 473.419 274.447 455.481 269.996 435.34C256.328 373.037 249.325 309.456 249.105 245.671" stroke="#9EB7E5" stroke-miterlimit="10"/>
<path d="M262.073 491.566C258.747 475.492 255.549 457.168 252.866 436.706C244.896 373.438 243.674 309.502 249.218 245.976" stroke="#9EB7E5" stroke-miterlimit="10"/>
<path d="M240.074 492C238.193 475.685 236.651 457.152 235.815 436.546C233.524 372.812 238.016 309.016 249.217 246.233" stroke="#9EB7E5" stroke-miterlimit="10"/>
<path d="M218.044 490.457C217.642 474.03 217.771 455.448 218.783 434.842C222.229 371.157 232.431 308.018 249.219 246.49" stroke="#9EB7E5" stroke-miterlimit="10"/>
<path d="M196.189 486.937C197.266 470.542 199.05 452.041 201.91 431.611C211.012 368.497 226.807 306.532 249.026 246.764" stroke="#9EB7E5" stroke-miterlimit="10"/>
<path d="M174.865 481.488C177.404 465.269 180.827 446.994 185.519 426.837C200.246 364.789 221.529 304.485 249.01 246.94" stroke="#9EB7E5" stroke-miterlimit="10"/>
<path d="M154.054 474.078C158.023 458.149 163.085 440.323 169.545 420.665C189.771 360.189 216.377 302.039 248.912 247.198" stroke="#9EB7E5" stroke-miterlimit="10"/>
<path d="M133.968 464.964C139.367 449.453 146.004 432.093 154.199 413.159C179.761 354.719 211.468 299.166 248.784 247.439" stroke="#9EB7E5" stroke-miterlimit="10"/>
<path d="M114.797 454.018C121.562 439.053 129.725 422.353 139.592 404.189C170.293 348.301 206.848 295.836 248.64 247.68" stroke="#9EB7E5" stroke-miterlimit="10"/>
<path d="M96.6875 441.4C104.722 427.094 114.364 411.198 125.838 394.031C161.426 341.117 202.538 292.139 248.48 247.921" stroke="#9EB7E5" stroke-miterlimit="10"/>
<path d="M79.7822 427.207C89.1025 413.673 100.126 398.708 113.046 382.635C153.238 333.126 198.578 288.032 248.303 248.114" stroke="#9EB7E5" stroke-miterlimit="10"/>
<path d="M64.209 411.551C74.7184 398.917 87.0277 384.997 101.346 370.145C145.805 324.439 194.997 283.591 248.092 248.291" stroke="#9EB7E5" stroke-miterlimit="10"/>
<path d="M50.1172 394.561C61.7033 382.924 75.2017 370.161 90.8052 356.659C139.178 315.118 191.835 278.844 247.885 248.451" stroke="#9EB7E5" stroke-miterlimit="10"/>
<path d="M37.582 376.382C50.1645 365.821 64.7716 354.329 81.5161 342.273C133.403 305.24 189.081 273.832 247.61 248.58" stroke="#9EB7E5" stroke-miterlimit="10"/>
<path d="M26.7344 357.142C40.2167 347.755 55.788 337.612 73.5448 327.116C128.556 294.882 186.842 268.598 247.417 248.708" stroke="#9EB7E5" stroke-miterlimit="10"/>
<path d="M17.6729 337.017C31.9265 328.884 48.3495 320.172 66.9741 311.299C124.657 284.137 185.065 263.187 247.177 248.805" stroke="#9EB7E5" stroke-miterlimit="10"/>
<path d="M10.4248 316.154C25.3694 309.322 42.5638 302.137 61.8472 294.969C121.729 273.081 183.769 257.627 246.92 248.869" stroke="#9EB7E5" stroke-miterlimit="10"/>
<path d="M5.08984 294.727C20.5808 289.278 38.2894 283.637 58.1996 278.236C119.804 261.808 182.98 251.979 246.663 248.917" stroke="#9EB7E5" stroke-miterlimit="10"/>
<path d="M1.74805 272.915C17.6569 268.865 35.7993 264.879 56.1112 261.246C118.938 250.407 182.74 246.285 246.438 248.95" stroke="#9EB7E5" stroke-miterlimit="10"/>
<path d="M0.268555 250.878C16.4827 248.274 34.9144 245.896 55.4673 244.127C119.013 238.972 182.927 240.589 246.132 248.95" stroke="#9EB7E5" stroke-miterlimit="10"/>
</g>
<defs>
<clipPath id="clip0_1_1336">
<rect width="491.937" height="492" fill="white" transform="translate(0.268555)"/>
</clipPath>
</defs>
</svg>
