<svg width="375" height="587" viewBox="0 0 375 587" fill="none" xmlns="http://www.w3.org/2000/svg">
<path d="M322.502 390.333C382.918 344.475 457.655 238.648 273.272 182.205C42.7926 111.65 81.7578 321.495 -41.092 160.655C-163.942 -0.185631 -337.34 2.37393 -270.009 128.965C-202.678 255.556 27.5689 243.234 -42.663 307.316" stroke="#FFFFAC" stroke-opacity="0.15" stroke-width="2"/>
<path d="M357.932 545.377C352.205 529.319 312.557 496.062 199.78 491.492C58.8086 485.78 28.6804 485.635 -52.4081 447.887" stroke="#FFFFAC" stroke-opacity="0.15" stroke-width="2"/>
<path d="M324.716 397.853C382.119 353.797 452.757 252.422 275.976 198.148C55.2949 130.434 90.5901 329.836 -29.0949 176.546C-149.451 23.2288 -316.629 25.5968 -254.185 145.899C-191.741 266.202 26.2181 254.015 -42.6001 314.147" stroke="#FFFFAC" stroke-opacity="0.15" stroke-width="2"/>
<path d="M326.923 405.371C381.313 363.116 447.852 266.194 278.674 214.088C67.7903 149.216 99.4154 338.175 -17.1048 192.435C-134.968 46.6408 -295.925 48.8172 -238.368 162.831C-180.81 276.845 24.8605 264.794 -42.5441 320.975" stroke="#FFFFAC" stroke-opacity="0.15" stroke-width="2"/>
<path d="M329.122 412.887C380.499 372.433 442.939 279.963 281.364 230.027C80.2776 167.996 108.233 346.511 -5.12273 208.322C-120.492 70.0508 -275.229 72.0356 -222.559 179.761C-169.888 287.487 23.4946 275.571 -42.4962 327.802" stroke="#FFFFAC" stroke-opacity="0.15" stroke-width="2"/>
<path d="M331.312 420.4C379.675 381.747 438.016 293.729 284.044 245.962C92.7555 186.772 117.04 354.845 6.84993 224.206C-106.026 93.4577 -254.543 95.2509 -206.759 196.688C-158.975 298.125 22.1195 286.345 -42.4577 334.626" stroke="#FFFFAC" stroke-opacity="0.15" stroke-width="2"/>
<path d="M333.49 427.909C378.84 391.058 433.082 307.492 286.712 261.894C105.222 205.545 125.837 363.175 18.8112 240.086C-91.571 116.861 -233.868 118.463 -190.971 213.611C-148.073 308.759 20.7329 297.115 -42.4305 341.446" stroke="#FFFFAC" stroke-opacity="0.15" stroke-width="2"/>
<path d="M335.656 435.414C377.992 400.364 428.135 321.251 289.368 277.822C117.676 224.314 134.62 371.501 30.7595 255.962C-77.1291 140.26 -213.206 141.67 -175.195 230.53C-137.185 319.39 19.3334 307.881 -42.4164 348.262" stroke="#FFFFAC" stroke-opacity="0.15" stroke-width="2"/>
<path d="M337.805 442.914C377.129 409.666 423.172 335.005 292.008 293.745C130.114 243.078 143.388 379.822 42.6923 271.834C-62.7028 163.655 -192.56 164.873 -159.436 247.444C-126.312 330.015 17.9183 318.643 -42.4177 355.073" stroke="#FFFFAC" stroke-opacity="0.15" stroke-width="2"/>
<path d="M339.936 450.409C376.246 418.962 418.191 348.753 294.63 309.663C142.533 261.837 152.138 388.138 54.6063 287.7C-48.2952 187.044 -171.932 188.07 -143.695 264.353C-115.457 340.636 16.4845 329.398 -42.4378 361.878" stroke="#FFFFAC" stroke-opacity="0.15" stroke-width="2"/>
<path d="M342.045 457.896C375.341 428.251 413.187 362.495 297.228 325.573C154.929 280.588 160.864 396.446 66.4974 303.558C-33.9106 210.425 -151.327 211.26 -127.977 281.255C-104.626 351.249 15.0277 340.147 -42.4809 368.677" stroke="#FFFFAC" stroke-opacity="0.15" stroke-width="2"/>
<path d="M344.124 465.375C374.407 437.531 408.153 376.227 299.798 341.474C167.297 299.33 169.561 404.745 78.3595 319.408C-19.555 233.798 -130.751 234.442 -112.288 298.147C-93.8236 361.853 13.5419 350.887 -42.553 375.466" stroke="#FFFFAC" stroke-opacity="0.15" stroke-width="2"/>
<path d="M346.166 472.842C373.436 446.799 403.083 389.948 302.33 357.364C179.627 318.061 178.222 413.033 90.1848 335.246C-5.23623 257.159 -110.213 257.611 -96.6352 315.028C-83.058 372.445 12.0194 361.615 -42.6619 382.244" stroke="#FFFFAC" stroke-opacity="0.15" stroke-width="2"/>
<path d="M348.162 480.295C372.418 456.054 397.967 403.654 304.816 373.24C191.911 336.778 186.835 421.307 101.963 351.07C9.0359 280.507 -89.7203 280.767 -81.0297 331.895C-72.3391 383.024 10.4501 372.329 -42.8174 389.008" stroke="#FFFFAC" stroke-opacity="0.15" stroke-width="2"/>
<path d="M350.096 487.729C371.339 465.289 392.788 417.342 307.241 389.096C204.133 355.475 195.387 429.562 113.68 366.875C23.2462 303.835 -69.2898 303.903 -65.4859 348.743C-61.682 393.583 8.81903 383.024 -43.0348 395.752" stroke="#FFFFAC" stroke-opacity="0.15" stroke-width="2"/>
<path d="M351.946 495.137C370.176 474.498 387.526 431.003 309.581 404.927C216.271 374.147 203.855 437.791 125.313 382.654C37.3727 327.137 -48.9431 327.014 -50.0259 365.565C-51.1087 404.116 7.10423 393.693 -43.3359 402.471" stroke="#FFFFAC" stroke-opacity="0.15" stroke-width="2"/>
<path d="M353.677 502.511C368.894 483.674 382.145 444.632 311.803 420.725C228.291 392.786 212.205 445.986 136.827 398.4C51.3807 350.406 -28.715 350.091 -34.6845 382.354C-40.654 414.616 5.27078 404.329 -43.7557 409.157" stroke="#FFFFAC" stroke-opacity="0.15" stroke-width="2"/>
<path d="M355.242 509.831C367.445 492.795 376.597 458.205 313.858 436.467C240.143 411.369 220.388 454.127 148.175 414.091C65.2216 373.62 -8.65397 373.113 -19.5101 399.087C-30.3663 425.061 3.27035 414.91 -44.3424 415.787" stroke="#FFFFAC" stroke-opacity="0.15" stroke-width="2"/>
<path d="M356.553 517.067C365.742 501.833 370.795 471.695 315.659 452.126C251.742 429.869 228.316 462.184 159.269 429.698C78.8088 396.75 11.1533 396.052 -4.58947 415.738C-20.3323 435.423 1.01613 425.407 -45.1829 422.334" stroke="#FFFFAC" stroke-opacity="0.15" stroke-width="2"/>
<path d="M357.462 524.181C363.639 510.748 364.592 485.063 317.059 467.663C262.941 448.247 235.844 470.119 169.961 445.183C91.9952 419.758 30.56 418.869 9.93046 432.266C-10.699 445.663 -1.63878 435.782 -46.4241 428.759" stroke="#FFFFAC" stroke-opacity="0.15" stroke-width="2"/>
<path d="M357.784 531.124C360.947 519.493 357.802 498.259 317.871 483.029C273.55 466.454 242.784 477.883 180.066 460.498C104.593 442.596 49.3783 441.514 23.8621 448.623C-1.65405 455.731 -4.88192 445.987 -48.2536 435.013" stroke="#FFFFAC" stroke-opacity="0.15" stroke-width="2"/>
<path d="M357.913 538.087C358.063 528.256 350.818 511.475 318.49 498.414C283.968 484.68 249.531 485.666 189.978 475.831C116.999 465.452 68.0038 464.179 37.6009 464.999C7.19808 465.819 -8.31794 456.21 -50.2759 441.286" stroke="#FFFFAC" stroke-opacity="0.15" stroke-width="2"/>
</svg>
