<svg width="920" height="1420" viewBox="0 0 920 1420" fill="none" xmlns="http://www.w3.org/2000/svg">
<path d="M1607.15 459.639C1644.48 288.804 1617.18 -8.62894 1209.35 168.311C699.575 389.485 1081.94 699.183 625.798 600.956C169.66 502.729 -130.6 766.703 176.92 887.95C484.439 1009.2 869.787 643.027 842.518 860.509" stroke="#FFFFAC" stroke-opacity="0.5" stroke-width="2"/>
<path d="M1622.28 469.514C1657.02 306.348 1629.2 22.8571 1237.95 192.223C749.61 403.718 1109.91 700.594 670.619 610.872C230.112 522.107 -59.5269 776.437 230.012 893.968C519.552 1011.5 883.552 663.956 852.851 872.395" stroke="#FFFFAC" stroke-opacity="0.5" stroke-width="2"/>
<path d="M1637.41 479.395C1669.56 323.898 1641.21 54.3493 1266.54 216.142C799.63 417.957 1137.86 702.011 715.424 620.794C290.548 541.491 11.5307 786.176 283.089 899.992C554.648 1013.81 897.302 684.891 863.168 884.287" stroke="#FFFFAC" stroke-opacity="0.5" stroke-width="2"/>
<path d="M1652.51 489.285C1682.07 341.456 1653.19 85.8494 1295.11 240.069C849.632 432.204 1165.8 703.436 760.211 630.724C350.967 560.883 82.5708 795.924 336.149 906.024C589.727 1016.12 911.034 705.834 873.468 896.187" stroke="#FFFFAC" stroke-opacity="0.5" stroke-width="2"/>
<path d="M1667.59 499.183C1694.57 359.023 1665.16 117.359 1323.66 264.004C899.614 446.459 1193.72 704.87 804.978 640.663C411.364 580.283 153.59 805.68 389.188 912.065C624.785 1018.45 924.746 726.787 883.747 908.096" stroke="#FFFFAC" stroke-opacity="0.5" stroke-width="2"/>
<path d="M1682.65 509.092C1707.03 376.601 1677.11 148.879 1352.18 287.951C949.57 460.726 1221.61 706.315 849.719 650.613C471.737 599.695 224.584 815.448 442.201 918.117C659.818 1020.79 938.432 747.75 894.001 920.016" stroke="#FFFFAC" stroke-opacity="0.5" stroke-width="2"/>
<path d="M1697.68 519.013C1719.47 394.19 1689.02 180.411 1380.67 311.91C999.497 475.005 1249.47 707.772 894.431 660.575C532.08 619.119 295.549 825.227 495.185 924.18C694.822 1023.13 952.088 768.725 904.225 931.948" stroke="#FFFFAC" stroke-opacity="0.5" stroke-width="2"/>
<path d="M1712.67 528.95C1731.88 411.795 1700.9 211.958 1409.13 335.883C1049.39 489.299 1277.3 709.244 939.109 670.552C592.389 638.558 366.48 835.022 548.136 930.259C729.792 1025.5 965.711 789.715 914.415 943.895" stroke="#FFFFAC" stroke-opacity="0.5" stroke-width="2"/>
<path d="M1727.63 538.904C1744.24 429.418 1712.74 243.523 1437.55 359.875C1099.24 503.611 1305.09 710.734 983.746 680.547C652.656 658.015 437.369 844.834 601.044 936.356C764.719 1027.88 979.292 810.724 924.564 955.86" stroke="#FFFFAC" stroke-opacity="0.5" stroke-width="2"/>
<path d="M1742.53 548.88C1756.56 447.063 1724.52 275.11 1465.91 383.889C1149.04 517.945 1332.83 712.246 1028.33 690.564C712.873 677.494 508.207 854.669 653.902 942.475C799.597 1030.28 992.823 831.754 934.663 967.847" stroke="#FFFFAC" stroke-opacity="0.5" stroke-width="2"/>
<path d="M1757.37 558.884C1768.81 464.735 1736.25 306.724 1494.22 407.93C1198.78 532.306 1360.5 713.786 1072.85 700.608C773.026 697 578.981 864.531 706.695 948.622C834.41 1032.71 1006.29 852.811 944.696 979.861" stroke="#FFFFAC" stroke-opacity="0.5" stroke-width="2"/>
<path d="M1772.12 568.923C1780.97 482.443 1747.89 338.374 1522.44 432.006C1248.43 546.702 1388.09 715.361 1117.29 710.688C833.097 716.541 649.674 874.428 759.408 954.803C869.141 1035.18 1019.67 873.904 954.648 991.911" stroke="#FFFFAC" stroke-opacity="0.5" stroke-width="2"/>
<path d="M1786.77 579.007C1793.04 500.195 1759.43 370.069 1550.55 456.127C1297.98 561.144 1415.58 716.98 1161.63 720.813C893.064 736.128 720.263 884.37 812.016 961.03C903.769 1037.69 1032.95 895.042 964.497 1004.01" stroke="#FFFFAC" stroke-opacity="0.5" stroke-width="2"/>
<path d="M1801.29 589.15C1804.96 518.006 1770.83 401.823 1578.53 480.308C1347.4 575.644 1442.93 718.659 1205.83 730.996C952.895 755.773 790.715 894.371 864.488 967.315C938.261 1040.26 1046.1 916.239 974.209 1016.16" stroke="#FFFFAC" stroke-opacity="0.5" stroke-width="2"/>
<path d="M1815.62 599.373C1816.71 535.898 1782.04 433.656 1606.33 504.568C1396.63 590.224 1470.09 720.417 1249.84 741.26C1012.54 775.499 860.982 904.453 916.774 973.681C972.566 1042.91 1059.06 937.516 983.736 1028.39" stroke="#FFFFAC" stroke-opacity="0.5" stroke-width="2"/>
<path d="M1829.69 609.715C1828.19 553.908 1793 465.609 1633.87 528.947C1445.6 604.924 1497 722.295 1293.6 751.643C1071.93 795.343 930.991 914.653 968.803 980.166C1006.61 1045.68 1071.76 958.912 993.005 1040.75" stroke="#FFFFAC" stroke-opacity="0.5" stroke-width="2"/>
<path d="M1843.39 620.21C1839.3 572.072 1803.58 497.715 1661.03 553.48C1494.19 619.777 1523.53 724.326 1336.98 762.179C1130.94 815.341 1000.62 925.006 1020.46 986.803C1040.29 1048.6 1084.08 980.461 1001.9 1053.25" stroke="#FFFFAC" stroke-opacity="0.5" stroke-width="2"/>
</svg>
