<svg width="375" height="670" viewBox="0 0 375 670" fill="none" xmlns="http://www.w3.org/2000/svg">
<path fill-rule="evenodd" clip-rule="evenodd" d="M3.12674 177.959C9.84923 149.924 13.8184 113.416 40.1845 101.755C67.4916 89.678 95.5708 119.424 125.072 124.027C148.097 127.62 174.054 112.914 193.547 125.684C213.03 138.447 207.581 169.789 222.38 187.774C244.966 215.22 304.265 221.018 301.133 256.425C298.073 291.002 237.094 282.035 211.925 305.94C190.955 325.858 199.098 374.714 170.72 380.292C141.096 386.115 126.794 339.739 98.9146 328.153C76.0825 318.664 45.8524 335.998 26.6536 320.417C7.48275 304.859 8.32981 275.735 4.30688 251.376C0.236371 226.728 -2.69841 202.252 3.12674 177.959Z" stroke="#9EB7E5" stroke-opacity="0.3" stroke-width="1.58493"/>
<path opacity="0.95875" fill-rule="evenodd" clip-rule="evenodd" d="M6.84702 180.011C14.5438 152.228 19.7847 115.88 46.5417 105.146C74.2536 94.0297 101.278 124.738 130.6 130.368C153.486 134.762 179.94 120.971 198.976 134.413C218.001 147.848 211.462 178.981 225.625 197.471C247.239 225.689 306.299 233.553 301.933 268.829C297.668 303.278 237.039 292.188 211.051 315.201C189.399 334.374 195.832 383.485 167.276 388.069C137.467 392.854 124.792 346.008 97.3348 333.456C74.8478 323.176 44.0312 339.444 25.3878 323.203C6.77162 306.986 8.63459 277.909 5.46424 253.424C2.25639 228.649 0.177618 204.085 6.84702 180.011Z" stroke="#9EB7E5" stroke-opacity="0.3" stroke-width="1.58493"/>
<path opacity="0.9175" fill-rule="evenodd" clip-rule="evenodd" d="M10.4943 182.19C19.156 154.692 25.6622 118.549 52.7775 108.756C80.8605 98.6137 106.796 130.246 135.905 136.896C158.623 142.086 185.542 129.227 204.097 143.325C222.642 157.416 215.02 188.302 228.529 207.275C249.145 236.23 307.896 246.151 302.301 281.252C296.837 315.532 236.631 302.333 209.856 324.425C187.548 342.83 192.263 392.136 163.565 395.721C133.607 399.462 122.575 352.203 95.5718 338.7C73.4573 327.641 42.0916 342.824 24.0264 325.942C5.98754 309.085 8.86415 280.091 6.55025 255.51C4.20897 230.639 2.98873 206.017 10.4943 182.19Z" stroke="#9EB7E5" stroke-opacity="0.3" stroke-width="1.58493"/>
<path opacity="0.87625" fill-rule="evenodd" clip-rule="evenodd" d="M14.0632 184.495C23.6793 157.317 31.443 121.423 58.8835 112.582C87.3034 103.426 112.119 135.944 140.978 143.606C163.501 149.585 190.853 137.673 208.905 152.411C226.946 167.141 218.251 197.741 231.09 217.174C250.683 246.831 309.051 258.796 302.235 293.681C295.578 327.749 235.87 312.457 208.34 333.601C185.403 351.217 188.394 400.657 159.589 403.238C129.518 405.932 120.142 358.316 93.6268 343.879C71.9117 332.055 40.0353 346.134 22.5703 328.632C5.13069 311.156 9.01743 282.279 7.56279 257.633C6.09094 232.695 5.73072 208.046 14.0632 184.495Z" stroke="#9EB7E5" stroke-opacity="0.3" stroke-width="1.58493"/>
<path opacity="0.835" fill-rule="evenodd" clip-rule="evenodd" d="M17.5496 186.923C28.1084 160.097 37.1199 124.496 64.8523 116.618C93.5744 108.459 117.241 141.824 145.814 150.488C168.115 157.25 195.866 146.3 213.392 161.659C230.909 177.009 221.151 207.287 233.304 227.157C251.85 257.479 309.765 271.474 301.735 306.1C293.893 339.915 234.755 322.548 206.504 342.718C182.966 359.523 184.23 409.038 155.352 410.612C125.206 412.255 117.497 364.34 91.5023 348.986C70.2131 336.412 37.8647 349.37 21.0211 331.269C4.20209 313.195 9.09422 284.472 8.50061 259.79C7.89998 234.816 8.40023 210.169 17.5496 186.923Z" stroke="#9EB7E5" stroke-opacity="0.3" stroke-width="1.58493"/>
<path opacity="0.79375" fill-rule="evenodd" clip-rule="evenodd" d="M20.9491 189.472C32.4376 163.03 42.6862 127.766 70.6766 120.86C99.6659 113.709 122.153 147.879 150.407 157.535C172.458 165.072 200.574 155.097 217.554 171.057C234.524 187.01 223.716 216.929 235.168 237.21C252.644 268.162 310.036 284.169 300.802 318.494C291.785 352.015 233.289 332.594 204.351 351.766C180.241 367.74 179.777 417.268 150.861 417.833C120.676 418.423 114.644 370.269 89.2008 354.017C68.3634 340.707 35.5825 352.529 19.3809 333.851C3.20288 315.201 9.09445 286.666 9.3626 261.978C9.63392 236.998 10.994 212.384 20.9491 189.472Z" stroke="#9EB7E5" stroke-opacity="0.3" stroke-width="1.58493"/>
<path opacity="0.7525" fill-rule="evenodd" clip-rule="evenodd" d="M24.2575 192.138C36.6619 166.113 48.1349 131.227 76.3493 125.303C105.571 119.168 126.852 154.102 154.751 164.738C176.526 173.04 204.973 164.052 221.385 180.596C237.789 197.13 225.943 226.655 236.679 247.323C253.065 278.866 309.863 296.866 299.437 330.847C289.256 364.033 231.473 342.583 201.884 360.734C177.231 375.856 175.038 425.338 146.121 424.893C115.933 424.43 111.586 376.094 86.7251 358.965C66.3649 344.936 33.1915 355.606 17.6515 336.374C2.13428 317.171 9.01811 288.859 10.1477 264.195C11.2906 239.24 13.5089 214.688 24.2575 192.138Z" stroke="#9EB7E5" stroke-opacity="0.3" stroke-width="1.58493"/>
<path opacity="0.71125" fill-rule="evenodd" clip-rule="evenodd" d="M27.4709 194.917C40.776 169.341 53.4595 134.877 81.8634 129.941C111.281 124.829 131.33 160.485 158.841 172.089C180.313 181.145 209.056 173.155 224.881 190.262C240.698 207.359 227.829 236.452 237.838 257.482C253.112 289.578 309.247 309.549 297.642 343.146C286.308 375.956 229.31 352.503 199.105 369.61C173.94 383.862 170.021 433.237 141.137 431.784C110.984 430.267 108.326 381.809 84.0783 363.822C64.2201 349.092 30.6945 358.597 15.8352 338.835C0.997587 319.102 8.86529 291.047 10.8549 266.438C12.8681 241.538 15.9419 217.079 27.4709 194.917Z" stroke="#9EB7E5" stroke-opacity="0.3" stroke-width="1.58493"/>
<path opacity="0.67" fill-rule="evenodd" clip-rule="evenodd" d="M30.5854 197.807C44.7749 172.711 58.6535 138.711 87.2124 134.769C116.79 130.687 135.583 167.021 162.673 179.577C183.815 189.377 212.82 182.396 228.038 200.044C243.248 217.683 229.371 246.309 238.64 267.676C252.786 300.285 308.19 322.203 295.419 355.374C282.947 387.769 226.802 362.341 196.019 378.383C170.371 391.749 164.732 440.957 135.916 438.497C105.834 435.928 104.869 387.407 81.2636 368.585C61.9316 353.17 28.0946 361.5 13.9341 341.231C-0.205809 320.992 8.63619 293.229 11.4834 268.705C14.3644 243.89 18.2899 219.553 30.5854 197.807Z" stroke="#9EB7E5" stroke-opacity="0.3" stroke-width="1.58493"/>
<path opacity="0.62875" fill-rule="evenodd" clip-rule="evenodd" d="M33.5971 200.804C48.6538 176.218 63.7105 142.723 92.3896 139.781C122.092 136.733 139.605 173.701 166.24 187.195C187.028 197.727 216.258 191.762 230.851 209.93C245.436 228.089 230.569 256.213 239.087 277.891C252.086 310.974 306.691 334.813 292.77 367.518C279.175 399.458 223.952 372.085 192.627 387.043C166.529 399.506 159.176 448.487 130.463 445.023C100.49 441.406 101.218 392.881 78.2844 373.246C59.5021 357.166 25.3951 364.31 11.9505 343.56C-1.47444 322.839 8.33107 295.402 12.0325 270.992C15.7777 246.293 20.5502 222.107 33.5971 200.804Z" stroke="#9EB7E5" stroke-opacity="0.3" stroke-width="1.58493"/>
<path opacity="0.5875" fill-rule="evenodd" clip-rule="evenodd" d="M36.5024 203.904C52.408 179.859 68.6245 146.909 97.3887 144.97C127.18 142.961 143.392 180.517 169.539 194.933C189.947 206.183 219.368 201.242 233.318 219.909C247.26 238.566 231.421 266.154 239.177 288.116C251.013 321.632 304.753 347.362 289.699 379.561C274.998 411.007 220.764 381.724 188.936 395.58C162.419 407.124 153.361 455.819 124.786 451.355C94.9574 446.694 97.379 398.224 75.1443 377.801C56.9346 361.075 22.599 367.024 9.88686 345.817C-2.80677 324.641 7.95031 297.563 12.5014 273.297C17.1063 248.743 22.7199 224.739 36.5024 203.904Z" stroke="#9EB7E5" stroke-opacity="0.3" stroke-width="1.58493"/>
<path opacity="0.54625" fill-rule="evenodd" clip-rule="evenodd" d="M39.2977 207.104C56.0327 183.628 73.3893 151.265 102.204 150.33C132.046 149.362 146.938 187.461 172.567 202.781C192.569 214.737 222.145 210.825 235.435 229.968C248.718 249.1 231.925 276.118 238.91 298.337C249.569 332.246 302.378 359.836 286.21 391.49C270.42 422.404 217.241 391.246 184.949 403.983C158.045 414.594 147.293 462.944 118.892 457.485C89.2438 451.786 93.3556 403.43 71.8471 382.243C54.2323 364.892 19.71 369.64 7.74569 348.002C-4.20117 326.395 7.49437 299.709 12.8895 275.616C18.3485 251.239 24.7965 227.445 39.2977 207.104Z" stroke="#9EB7E5" stroke-opacity="0.3" stroke-width="1.58493"/>
<path opacity="0.505" fill-rule="evenodd" clip-rule="evenodd" d="M41.9797 210.399C59.5238 187.522 77.9992 155.784 106.829 155.855C136.687 155.929 150.24 194.525 175.318 210.729C194.892 223.377 224.585 220.5 237.199 240.094C249.806 259.678 232.081 286.094 238.286 308.543C247.755 342.803 299.57 372.219 282.307 403.291C265.448 433.634 213.388 400.639 180.671 412.241C153.414 421.907 140.981 469.852 112.787 463.405C83.356 456.675 89.1529 408.492 68.3969 386.568C51.3984 368.612 16.7315 372.152 5.52959 350.11C-5.65594 328.1 6.96381 301.838 13.1965 277.948C19.503 253.776 26.7774 230.222 41.9797 210.399Z" stroke="#9EB7E5" stroke-opacity="0.3" stroke-width="1.58493"/>
<path opacity="0.46375" fill-rule="evenodd" clip-rule="evenodd" d="M44.545 213.786C62.8768 191.535 82.4486 160.461 111.258 161.539C141.096 162.655 153.293 201.7 177.791 218.77C196.911 232.092 226.687 230.253 238.609 250.276C250.525 270.288 231.889 296.069 237.306 318.721C245.575 353.291 296.331 384.498 277.994 414.947C260.086 444.684 209.209 409.892 176.108 420.345C148.529 429.054 134.431 476.536 106.48 469.109C77.3012 461.356 84.7761 413.405 64.798 390.769C48.4364 372.232 13.6671 374.559 3.24127 352.139C-7.16931 329.752 6.35928 303.947 13.4219 280.289C20.5681 256.352 28.6602 233.066 44.545 213.786Z" stroke="#9EB7E5" stroke-opacity="0.3" stroke-width="1.58493"/>
<path opacity="0.4225" fill-rule="evenodd" clip-rule="evenodd" d="M46.9905 217.26C66.0877 195.663 86.7321 165.291 115.486 167.373C145.267 169.53 156.094 208.977 179.981 226.891C198.625 240.873 228.447 240.074 239.663 260.501C250.873 280.916 231.349 306.032 235.972 328.859C243.029 363.696 292.665 396.655 273.277 426.446C254.342 455.54 204.711 418.994 171.265 428.285C143.399 436.027 127.652 482.987 99.9768 474.589C71.0868 465.823 80.2306 418.161 61.0545 394.843C45.3499 375.745 10.5205 376.858 0.883502 354.088C-8.73943 331.351 5.68151 306.034 13.5655 282.637C21.5427 258.964 30.4425 235.974 46.9905 217.26Z" stroke="#9EB7E5" stroke-opacity="0.3" stroke-width="1.58493"/>
<path opacity="0.38125" fill-rule="evenodd" clip-rule="evenodd" d="M49.3134 220.817C69.1526 199.9 90.8444 170.267 119.508 173.351C149.196 176.546 158.64 216.347 181.887 235.084C200.031 249.708 229.863 249.95 240.36 270.756C250.851 291.551 230.461 315.969 234.285 338.944C240.122 374.006 288.577 408.677 268.161 437.773C248.223 466.189 199.897 427.933 166.147 436.051C138.028 442.815 120.652 489.198 93.2867 479.839C64.7202 470.07 75.5218 422.757 57.1712 398.783C42.1427 379.149 7.29564 379.045 -1.54083 355.953C-10.3644 332.894 4.93133 308.095 13.627 284.988C22.4256 261.608 32.1223 238.943 49.3134 220.817Z" stroke="#9EB7E5" stroke-opacity="0.3" stroke-width="1.58493"/>
<path opacity="0.34" fill-rule="evenodd" clip-rule="evenodd" d="M51.5106 224.454C72.0678 204.241 94.7805 175.383 123.32 179.466C152.877 183.695 160.926 223.801 183.506 243.338C201.128 258.586 230.933 259.87 240.698 281.029C250.456 302.177 229.227 325.869 232.247 348.964C236.857 384.208 284.073 420.549 262.653 448.915C241.736 476.617 194.774 436.699 160.762 443.634C132.424 449.413 113.439 495.16 86.4174 484.852C58.2093 474.092 70.6555 427.185 53.1528 402.585C38.8186 382.439 3.9964 381.119 -4.02877 357.732C-12.0422 334.38 4.10966 310.13 13.6065 287.34C23.2157 264.281 33.6974 241.968 51.5106 224.454Z" stroke="#9EB7E5" stroke-opacity="0.3" stroke-width="1.58493"/>
<path opacity="0.29875" fill-rule="evenodd" clip-rule="evenodd" d="M53.5796 228.165C74.8297 208.682 98.5357 180.634 126.915 185.711C156.307 190.969 162.952 231.331 184.835 251.644C201.915 267.498 231.657 269.821 240.677 291.308C249.692 312.784 227.649 335.721 229.861 358.906C233.237 394.29 279.156 432.257 256.76 459.858C234.888 486.813 189.349 445.28 155.115 451.024C126.592 455.81 106.023 500.867 79.3774 489.623C51.5619 477.884 65.6376 431.44 49.0041 406.245C35.3817 385.61 0.626808 383.076 -6.57729 359.424C-13.7709 335.806 3.21748 312.134 13.5039 289.69C23.912 266.98 35.166 245.047 53.5796 228.165Z" stroke="#9EB7E5" stroke-opacity="0.3" stroke-width="1.58493"/>
<path opacity="0.2575" fill-rule="evenodd" clip-rule="evenodd" d="M55.5178 231.945C77.4349 213.216 102.105 186.013 130.29 192.077C159.48 198.357 164.713 238.927 185.874 259.992C202.39 276.432 232.033 279.791 240.297 301.58C248.557 323.358 225.727 345.511 227.129 368.76C229.268 404.24 273.834 443.786 250.489 470.589C227.689 496.764 183.627 453.667 149.213 458.213C120.542 462.001 98.412 506.312 72.1751 494.145C44.7863 481.443 60.4743 435.518 44.7302 409.757C31.8363 388.66 -2.80905 384.915 -9.18329 361.025C-15.5482 337.17 2.2559 314.106 13.3193 292.034C24.5137 269.702 36.5263 248.175 55.5178 231.945Z" stroke="#9EB7E5" stroke-opacity="0.3" stroke-width="1.58493"/>
<path opacity="0.21625" fill-rule="evenodd" clip-rule="evenodd" d="M57.3229 235.792C79.8803 217.839 105.485 191.513 133.441 198.557C162.394 205.852 166.208 246.58 186.621 268.37C202.553 285.377 232.061 289.769 239.56 311.833C247.055 333.885 223.465 355.228 224.055 378.512C224.955 414.045 268.113 455.122 243.846 481.094C220.147 506.458 177.616 461.849 143.065 465.191C114.278 467.976 90.6157 511.488 64.8195 498.412C37.8906 484.762 55.1718 439.413 40.3363 413.119C28.1865 391.584 -6.30697 386.632 -11.8436 362.535C-17.3721 338.472 1.22607 316.044 13.0531 294.371C25.02 272.443 37.7766 251.348 57.3229 235.792Z" stroke="#9EB7E5" stroke-opacity="0.3" stroke-width="1.58493"/>
<path opacity="0.175" fill-rule="evenodd" clip-rule="evenodd" d="M58.9927 239.698C82.1629 222.544 108.671 197.128 136.364 205.143C165.045 213.444 167.434 254.28 187.075 276.769C202.404 294.322 231.74 299.741 238.465 322.053C245.185 344.354 220.865 364.86 220.642 388.15C220.301 423.693 262 466.252 236.842 491.361C212.272 515.882 171.323 469.816 136.676 471.951C107.81 473.729 82.6435 516.389 57.3193 502.421C30.8833 487.839 49.7366 443.121 35.8278 416.325C24.437 394.379 -9.86269 388.226 -14.555 363.95C-19.2404 339.71 0.129271 317.944 12.7054 296.697C25.4303 275.2 38.9153 254.563 58.9927 239.698Z" stroke="#9EB7E5" stroke-opacity="0.3" stroke-width="1.58493"/>
<path opacity="0.13375" fill-rule="evenodd" clip-rule="evenodd" d="M60.5251 243.661C84.2799 227.325 111.659 202.85 139.055 211.827C167.429 221.124 168.392 262.018 187.236 285.18C201.943 303.256 231.072 309.696 237.014 332.229C242.952 354.751 217.931 374.396 216.895 397.664C215.314 433.174 255.502 477.162 229.483 501.377C204.072 525.026 164.756 477.559 130.056 478.483C101.145 479.253 74.5051 521.009 49.6839 506.165C23.7728 490.67 44.1753 446.637 31.2102 419.371C20.5922 397.042 -13.4719 389.696 -17.3141 365.271C-21.1506 340.881 -1.03318 319.804 12.2768 299.01C25.7442 277.97 39.9412 257.816 60.5251 243.661Z" stroke="#9EB7E5" stroke-opacity="0.3" stroke-width="1.58493"/>
<path opacity="0.0925" fill-rule="evenodd" clip-rule="evenodd" d="M61.9183 247.675C86.2287 232.178 114.445 208.673 141.511 218.601C169.544 228.882 169.079 269.786 187.103 293.59C201.17 312.169 230.057 319.622 235.208 342.349C240.357 365.063 214.666 383.824 212.818 407.041C209.999 442.474 248.628 487.838 221.779 511.131C195.559 533.878 157.923 485.068 123.212 484.78C94.2917 484.541 66.2105 525.342 41.9224 509.641C16.5679 493.251 38.4947 449.956 26.489 422.255C16.6567 399.569 -17.1302 391.038 -20.1176 366.494C-23.1006 341.985 -2.25987 321.623 11.7677 301.306C25.9612 280.749 40.8529 261.103 61.9183 247.675Z" stroke="#9EB7E5" stroke-opacity="0.3" stroke-width="1.58493"/>
<path opacity="0.05125" fill-rule="evenodd" clip-rule="evenodd" d="M63.1705 251.735C88.007 237.096 117.026 214.59 143.73 225.456C171.386 236.71 169.494 277.572 186.676 301.991C200.086 321.05 228.696 329.506 233.051 352.399C237.404 375.279 211.073 393.132 208.417 416.271C204.363 451.583 241.385 498.267 213.739 520.609C186.741 542.428 150.832 492.334 116.152 490.835C87.2577 489.586 57.7697 529.382 34.0444 512.843C9.2773 495.578 32.7017 453.075 21.6701 424.972C12.6356 401.956 -20.8331 392.252 -22.9621 367.618C-25.088 343.021 -3.54929 323.399 11.1788 303.583C26.0811 283.534 41.6493 264.42 63.1705 251.735Z" stroke="#9EB7E5" stroke-opacity="0.3" stroke-width="1.58493"/>
<path opacity="0.01" fill-rule="evenodd" clip-rule="evenodd" d="M64.2811 255.835C89.6133 242.072 119.4 220.592 145.708 232.384C172.955 244.596 169.638 285.367 185.958 310.371C198.695 329.886 226.991 339.335 230.545 362.366C234.097 385.385 207.159 402.307 203.697 425.34C198.413 460.489 233.783 508.437 205.375 529.8C177.631 550.664 143.492 499.347 108.886 496.639C80.0527 494.382 49.1938 533.125 26.0601 515.768C1.91071 497.649 26.8042 455.99 16.7601 427.518C8.53427 404.202 -24.5753 393.335 -25.8433 368.642C-27.1095 343.985 -4.89908 325.127 10.5116 305.837C26.1045 286.32 42.3303 267.761 64.2811 255.835Z" stroke="#9EB7E5" stroke-opacity="0.3" stroke-width="1.58493"/>
</svg>
