<svg aria-hidden="true" style="position: absolute; width: 0; height: 0; overflow: hidden;" version="1.1" xmlns="http://www.w3.org/2000/svg" xmlns:xlink="http://www.w3.org/1999/xlink">
<defs>

<symbol id="icon-inst" viewBox="0 0 32 32">
<path d="M13.786 2.179h4.143l1.589 0.018 1.036 0.036 0.982 0.054 0.982 0.071 0.661 0.071 0.589 0.089 0.75 0.161 0.464 0.125 0.5 0.179 0.5 0.232 0.464 0.25 0.411 0.268 0.339 0.25 0.268 0.232 0.214 0.196 0.179 0.196 0.161 0.196 0.25 0.321 0.232 0.357 0.25 0.446 0.179 0.411 0.161 0.429 0.179 0.589 0.125 0.536 0.143 0.857 0.089 0.786 0.071 0.946 0.036 0.661 0.036 1.25 0.036 1.643v3.625l-0.036 2.214-0.018 0.679-0.089 1.464-0.054 0.661-0.071 0.571-0.179 0.964-0.125 0.536-0.161 0.518-0.179 0.411-0.286 0.589-0.179 0.304-0.286 0.429-0.161 0.214-0.196 0.232-0.321 0.321-0.143 0.125-0.196 0.161-0.232 0.179-0.304 0.196-0.268 0.161-0.375 0.196-0.536 0.214-0.554 0.179-0.536 0.143-0.732 0.143-0.75 0.107-0.732 0.071-1.071 0.071-0.804 0.036-1.482 0.036-0.893 0.018h-4.125l-1.661-0.036-1.018-0.036-1.089-0.071-0.804-0.071-0.589-0.071-0.661-0.125-0.643-0.143-0.357-0.107-0.518-0.196-0.429-0.196-0.393-0.214-0.286-0.179-0.232-0.161-0.232-0.179-0.179-0.143-0.232-0.214-0.268-0.268-0.161-0.196-0.232-0.304-0.286-0.429-0.25-0.446-0.143-0.321-0.179-0.482-0.125-0.393-0.143-0.536-0.125-0.643-0.107-0.732-0.089-0.839-0.054-0.75-0.054-1.393-0.036-2.214v-3.696l0.036-1.982 0.036-0.875 0.071-1.232 0.071-0.768 0.089-0.661 0.179-0.893 0.107-0.411 0.179-0.536 0.161-0.375 0.161-0.339 0.214-0.393 0.125-0.214 0.143-0.214 0.125-0.179 0.125-0.161 0.196-0.232 0.268-0.286 0.232-0.214 0.25-0.196 0.268-0.196 0.357-0.232 0.286-0.161 0.411-0.196 0.536-0.196 0.518-0.161 0.536-0.125 0.696-0.125 0.661-0.089 0.786-0.071 0.857-0.054 0.964-0.036 0.661-0.018zM13.679 4.446l-1.786 0.036-0.964 0.036-0.821 0.054-0.732 0.071-0.625 0.089-0.571 0.107-0.5 0.143-0.464 0.161-0.304 0.143-0.339 0.196-0.304 0.232-0.196 0.179-0.143 0.125-0.196 0.214-0.232 0.321-0.161 0.286-0.214 0.482-0.214 0.643-0.089 0.375-0.125 0.786-0.125 1.036-0.054 0.732-0.036 0.929-0.036 2.036v4.357l0.018 1.125 0.036 1.25 0.054 1.018 0.089 0.911 0.125 0.857 0.107 0.518 0.143 0.464 0.143 0.411 0.196 0.411 0.179 0.286 0.214 0.286 0.196 0.214 0.196 0.196 0.179 0.143 0.25 0.179 0.393 0.214 0.482 0.196 0.429 0.143 0.643 0.143 0.554 0.089 0.554 0.071 1.161 0.107 0.536 0.036 0.786 0.036 1.696 0.036h4.357l1.732-0.054 1.196-0.054 0.982-0.071 0.804-0.089 0.661-0.107 0.625-0.161 0.589-0.196 0.321-0.143 0.339-0.196 0.214-0.161 0.179-0.143 0.232-0.214 0.125-0.125 0.161-0.196 0.143-0.196 0.125-0.196 0.196-0.429 0.179-0.5 0.143-0.518 0.143-0.804 0.107-0.786 0.054-0.625 0.036-0.75 0.036-1.054 0.036-1.536v-4.786l-0.036-1.518-0.054-1.268-0.054-0.732-0.089-0.821-0.089-0.571-0.143-0.625-0.214-0.643-0.125-0.304-0.214-0.393-0.214-0.304-0.161-0.196-0.143-0.161-0.143-0.125-0.214-0.179-0.25-0.161-0.286-0.161-0.482-0.196-0.304-0.107-0.5-0.143-0.429-0.089-0.625-0.089-0.786-0.089-0.679-0.054-1.161-0.054-2.143-0.036z"></path>
<path d="M15.607 8.857h0.804l0.571 0.054 0.536 0.089 0.464 0.107 0.482 0.161 0.411 0.179 0.5 0.25 0.429 0.25 0.214 0.143 0.25 0.179 0.25 0.196 0.179 0.143 0.268 0.232 0.286 0.286 0.161 0.196 0.232 0.286 0.214 0.286 0.161 0.25 0.214 0.357 0.143 0.25 0.214 0.5 0.196 0.518 0.179 0.661 0.089 0.482 0.054 0.464 0.018 0.25v0.768l-0.036 0.429-0.071 0.482-0.125 0.536-0.125 0.446-0.107 0.268-0.232 0.518-0.268 0.518-0.179 0.286-0.196 0.286-0.196 0.268-0.179 0.232-0.196 0.214-0.25 0.268-0.143 0.125-0.25 0.214-0.179 0.143-0.232 0.179-0.357 0.232-0.268 0.161-0.411 0.214-0.518 0.214-0.393 0.143-0.661 0.179-0.446 0.089-0.429 0.054-0.607 0.036h-0.429l-0.482-0.036-0.482-0.071-0.429-0.089-0.429-0.125-0.321-0.107-0.357-0.161-0.589-0.286-0.429-0.25-0.339-0.232-0.232-0.179-0.286-0.232-0.214-0.196-0.125-0.107-0.125-0.143-0.143-0.143-0.161-0.196-0.232-0.286-0.196-0.268-0.214-0.339-0.179-0.304-0.214-0.446-0.286-0.75-0.143-0.518-0.107-0.554-0.054-0.393-0.036-0.464v-0.679l0.036-0.393 0.107-0.625 0.107-0.446 0.107-0.375 0.107-0.286 0.214-0.464 0.304-0.589 0.179-0.286 0.125-0.196 0.214-0.286 0.143-0.196 0.232-0.268 0.196-0.214 0.179-0.179 0.143-0.125 0.25-0.214 0.25-0.196 0.268-0.196 0.446-0.268 0.393-0.214 0.446-0.196 0.536-0.196 0.554-0.143 0.375-0.071 0.607-0.071zM15.589 11.125l-0.429 0.054-0.411 0.089-0.464 0.143-0.375 0.161-0.429 0.232-0.214 0.143-0.304 0.214-0.268 0.25-0.143 0.125-0.179 0.179-0.125 0.143-0.232 0.321-0.268 0.446-0.161 0.304-0.161 0.357-0.125 0.393-0.107 0.464-0.071 0.518v0.696l0.071 0.482 0.107 0.482 0.161 0.482 0.25 0.518 0.161 0.268 0.143 0.214 0.214 0.286 0.196 0.214 0.304 0.304 0.196 0.161 0.214 0.161 0.339 0.214 0.464 0.25 0.321 0.143 0.482 0.161 0.411 0.089 0.411 0.054 0.286 0.018h0.286l0.393-0.036 0.446-0.071 0.375-0.089 0.464-0.161 0.446-0.214 0.25-0.143 0.375-0.25 0.357-0.286v-0.036l0.071-0.036 0.286-0.286 0.125-0.143 0.107-0.125 0.196-0.286 0.214-0.357 0.143-0.286 0.179-0.411 0.125-0.446 0.107-0.536 0.036-0.286v-0.732l-0.089-0.625-0.089-0.375-0.179-0.536-0.286-0.571-0.196-0.304-0.179-0.25-0.161-0.196-0.214-0.232-0.143-0.143-0.143-0.125-0.304-0.232-0.268-0.161-0.429-0.25-0.339-0.161-0.375-0.143-0.321-0.089-0.357-0.071-0.429-0.054z"></path>
<path d="M23.161 7.518h0.25l0.232 0.036 0.232 0.089 0.161 0.107 0.179 0.161 0.125 0.179 0.107 0.232 0.036 0.125v0.393l-0.071 0.232-0.161 0.232-0.196 0.214-0.196 0.143-0.268 0.107-0.089 0.018h-0.357l-0.25-0.071-0.214-0.107-0.161-0.125-0.161-0.161-0.089-0.143-0.071-0.196-0.054-0.286 0.018-0.214 0.071-0.214 0.161-0.286 0.196-0.214 0.161-0.107 0.179-0.089 0.107-0.036z"></path>
</symbol>

<symbol id="icon-teleg" viewBox="0 0 32 32">
<path d="M21.951 11.795l-1.453 9.305c-0.020 0.128-0.072 0.25-0.15 0.353s-0.181 0.186-0.3 0.24c-0.118 0.054-0.248 0.077-0.378 0.069s-0.255-0.049-0.365-0.119l-4.867-3.049c-0.101-0.063-0.186-0.149-0.25-0.25s-0.102-0.216-0.114-0.334c-0.012-0.119 0.003-0.239 0.044-0.351s0.107-0.213 0.194-0.296l4.040-3.872c0.045-0.043-0.008-0.113-0.061-0.081l-5.856 3.504c-0.348 0.209-0.761 0.282-1.16 0.204l-2.12-0.409c-0.765-0.148-0.871-1.199-0.152-1.496l11.336-4.687c0.193-0.080 0.404-0.108 0.611-0.079s0.403 0.112 0.567 0.241c0.164 0.129 0.291 0.3 0.368 0.495s0.099 0.406 0.067 0.613z"></path>
<path d="M16 2.275c-7.58 0-13.725 6.145-13.725 13.725s6.145 13.725 13.725 13.725c7.58 0 13.725-6.145 13.725-13.725s-6.145-13.725-13.725-13.725zM4.627 16c0-1.494 0.294-2.972 0.866-4.352s1.409-2.634 2.465-3.69 2.31-1.894 3.69-2.465c1.38-0.572 2.859-0.866 4.352-0.866s2.972 0.294 4.352 0.866c1.38 0.572 2.634 1.409 3.69 2.465s1.894 2.31 2.465 3.69c0.572 1.38 0.866 2.859 0.866 4.352 0 3.016-1.198 5.909-3.331 8.042s-5.026 3.331-8.042 3.331c-3.016 0-5.909-1.198-8.042-3.331s-3.331-5.026-3.331-8.042z"></path>
</symbol>

<symbol id="icon-tt" viewBox="0 0 32 32">
<path d="M10.567 2.933h10.783l0.633 0.033 0.533 0.050 0.433 0.067 0.433 0.1 0.483 0.15 0.467 0.183 0.45 0.217 0.367 0.2 0.367 0.217 0.25 0.167 0.3 0.217 0.233 0.183 0.167 0.15 0.067 0.050v0.033l0.067 0.033 0.467 0.467 0.117 0.133 0.217 0.267 0.217 0.3 0.217 0.317 0.217 0.35 0.15 0.267 0.2 0.417 0.233 0.6 0.133 0.417 0.117 0.5 0.083 0.483 0.050 0.517 0.017 0.3 0.017 0.883v8.85l-0.017 1.45-0.033 0.633-0.050 0.467-0.117 0.567-0.117 0.45-0.133 0.4-0.167 0.4-0.317 0.633-0.2 0.35-0.183 0.283-0.133 0.183-0.233 0.317-0.15 0.183-0.183 0.2-0.1 0.117h-0.033l-0.033 0.067-0.183 0.183-0.133 0.117-0.167 0.15-0.267 0.2-0.25 0.183-0.217 0.15-0.25 0.167-0.367 0.217-0.383 0.2-0.45 0.183-0.467 0.167-0.417 0.117-0.533 0.117-0.433 0.067-0.583 0.050-0.383 0.017h-11.067l-0.633-0.050-0.5-0.067-0.467-0.1-0.4-0.117-0.433-0.15-0.55-0.25-0.4-0.2-0.317-0.183-0.45-0.3-0.317-0.233-0.233-0.2-0.167-0.15-0.267-0.25-0.233-0.25-0.15-0.167-0.183-0.233-0.233-0.317-0.183-0.267-0.2-0.317-0.25-0.433-0.25-0.567-0.217-0.6-0.117-0.417-0.117-0.6-0.067-0.483-0.033-0.433-0.017-0.4-0.017-0.767v-9.15l0.017-0.817 0.017-0.433 0.050-0.5 0.1-0.6 0.15-0.6 0.15-0.45 0.167-0.4 0.183-0.383 0.217-0.383 0.133-0.233 0.117-0.183 0.233-0.333 0.1-0.133 0.217-0.3 0.2-0.217 0.083-0.1 0.133-0.117 0.067-0.083h0.033l0.017-0.050 0.133-0.117 0.2-0.183 0.217-0.167 0.3-0.217 0.25-0.183 0.367-0.233 0.35-0.2 0.417-0.2 0.45-0.183 0.4-0.133 0.6-0.15 0.483-0.083 0.45-0.050zM10.9 5.033l-0.5 0.017-0.6 0.050-0.45 0.083-0.433 0.117-0.483 0.183-0.483 0.233-0.317 0.2-0.217 0.15-0.267 0.2-0.2 0.183-0.067 0.050v0.033h-0.033l-0.083 0.1-0.1 0.083-0.117 0.133-0.033 0.067h-0.033l-0.233 0.267v0.033h-0.033l-0.167 0.233-0.2 0.333-0.2 0.367-0.167 0.35-0.167 0.433-0.133 0.517-0.083 0.517-0.033 0.35-0.017 0.317-0.017 1.933v8.183l0.017 0.733 0.050 0.567 0.067 0.417 0.1 0.417 0.15 0.45 0.183 0.433 0.2 0.383 0.267 0.4 0.183 0.233 0.15 0.167 0.117 0.133 0.417 0.417 0.133 0.117 0.217 0.183 0.35 0.233 0.35 0.2 0.25 0.133 0.45 0.2 0.45 0.15 0.4 0.1 0.317 0.050 0.617 0.050 0.7 0.017h6.883l3.583-0.017 0.517-0.050 0.383-0.067 0.35-0.083 0.467-0.167 0.35-0.15 0.267-0.133 0.233-0.133 0.45-0.3 0.217-0.167 0.167-0.15 0.133-0.117 0.233-0.233 0.117-0.133 0.15-0.167 0.15-0.183 0.2-0.283 0.183-0.317 0.2-0.383 0.133-0.317 0.133-0.4 0.117-0.45 0.083-0.483 0.033-0.383 0.017-11.083-0.017-0.383-0.083-0.65-0.083-0.367-0.117-0.367-0.133-0.35-0.15-0.333-0.183-0.35-0.217-0.333-0.2-0.267-0.217-0.25-0.267-0.283-0.167-0.15-0.233-0.2-0.283-0.217-0.367-0.233-0.4-0.217-0.367-0.167-0.45-0.167-0.283-0.083-0.517-0.1-0.433-0.050-0.25-0.017-0.533-0.017z"></path>
<path d="M17.117 6.933h0.367l0.217 0.050 0.217 0.117 0.15 0.133 0.15 0.2 0.15 0.283 0.2 0.467 0.2 0.367 0.183 0.283 0.15 0.2 0.183 0.233 0.2 0.217 0.383 0.383 0.183 0.15 0.317 0.217 0.4 0.233 0.267 0.133 0.233 0.1 0.433 0.117 0.45 0.067 0.583 0.050 0.267 0.050 0.233 0.117 0.183 0.15 0.15 0.167 0.117 0.217 0.033 0.117 0.017 0.25-0.033 0.233-0.067 0.167-0.117 0.2-0.233 0.25-0.167 0.117-0.183 0.050-0.133 0.017h-0.717l-0.55-0.067-0.467-0.1-0.333-0.1-0.517-0.183-0.4-0.183-0.233-0.117-0.367-0.217-0.267-0.183-0.183-0.15-0.233-0.2-0.15-0.1 0.017 0.033-0.017 2.967-0.017 5.633-0.033 0.583-0.033 0.3-0.083 0.35-0.117 0.383-0.167 0.4-0.15 0.317-0.167 0.283-0.15 0.217-0.217 0.283-0.183 0.217-0.183 0.2-0.133 0.133-0.183 0.15-0.233 0.183-0.333 0.233-0.267 0.15-0.25 0.133-0.417 0.167-0.433 0.133-0.5 0.1-0.433 0.050-0.233 0.017h-0.45l-0.35-0.033-0.433-0.067-0.383-0.1-0.317-0.117-0.433-0.183-0.317-0.167-0.35-0.217-0.233-0.183-0.183-0.15-0.267-0.25-0.183-0.183-0.15-0.183-0.167-0.217-0.2-0.283-0.25-0.417-0.233-0.517-0.133-0.417-0.133-0.633-0.050-0.483v-0.533l0.033-0.367 0.1-0.517 0.1-0.333 0.1-0.3 0.167-0.383 0.133-0.267 0.167-0.283 0.2-0.283 0.167-0.217 0.2-0.233 0.183-0.2 0.2-0.183 0.233-0.183 0.3-0.217 0.283-0.183 0.367-0.2 0.45-0.183 0.417-0.117 0.45-0.083 0.4-0.050 0.383-0.017 0.283 0.033 0.233 0.083 0.167 0.117 0.117 0.1 0.15 0.183 0.083 0.133 0.067 0.217v0.4l-0.067 0.2-0.1 0.167-0.217 0.267-0.167 0.117-0.217 0.067-0.717 0.083-0.383 0.083-0.333 0.117-0.267 0.133-0.283 0.167-0.233 0.183-0.233 0.233-0.15 0.167-0.15 0.233-0.133 0.233-0.1 0.2-0.133 0.417-0.083 0.383-0.017 0.15v0.433l0.067 0.383 0.1 0.35 0.167 0.4 0.167 0.283 0.183 0.233 0.25 0.267 0.183 0.15 0.317 0.217 0.317 0.167 0.25 0.1 0.383 0.1 0.233 0.033 0.383 0.017 0.3-0.033 0.4-0.083 0.267-0.083 0.333-0.15 0.233-0.133 0.233-0.167 0.167-0.15h0.033v-0.033l0.083-0.067 0.15-0.183 0.133-0.167 0.15-0.25 0.133-0.267 0.1-0.317 0.083-0.417 0.033-0.483v-0.6l-0.017-4.383v-1.017l0.017-5.733 0.017-0.333 0.050-0.217 0.1-0.183 0.133-0.167 0.083-0.1 0.2-0.15 0.167-0.083z"></path>
</symbol>

<symbol id="icon-gift" viewBox="0 0 31 32">
<path d="M30.217 17.732c0.47-0.795 0.206-1.822-0.589-2.292l-2.459-1.453c1.007-0.252 1.901-0.834 2.5-1.847 0.737-1.248 0.822-3.027-1.19-4.215-2.647-1.564-6.523-0.053-8.496 0.913-0.106-2.194-0.72-6.359-3.366-7.922-2.012-1.189-3.529-0.257-4.267 0.991-0.599 1.013-0.667 2.083-0.388 3.095l-2.501-1.478c-0.795-0.47-1.822-0.206-2.292 0.589l-2.548 4.311 1.453 0.859-5.54 9.375c-0.47 0.795-0.206 1.822 0.589 2.292l17.278 10.21c0.795 0.47 1.822 0.206 2.292-0.589l5.541-9.376 1.435 0.848 2.548-4.311zM27.628 9.366c0.89 0.526 1.067 1.135 0.601 1.924-0.945 1.6-3.241 1.408-4.921 0.415l-2.438-1.441c1.922-0.915 4.967-1.957 6.759-0.898zM15.767 2.357c1.792 1.059 2.416 4.269 2.542 6.394l-2.439-1.441c-1.68-0.993-3.010-2.973-2.064-4.573 0.466-0.788 1.071-0.905 1.962-0.379zM27.080 19.752l-9.363-5.533 1.697-2.871 9.363 5.533-1.697 2.871zM8.611 4.964l9.363 5.533-1.697 2.871-9.363-5.533 1.697-2.871zM7.516 10.134l7.91 4.674-5.54 9.375-7.91-4.674 5.54-9.375zM19.254 29.72l-7.928-4.685 5.54-9.375 7.928 4.685-5.54 9.375z"></path>
</symbol>

<symbol id="icon-star" viewBox="0 0 32 32">
<path fill="#e1a230" style="fill: var(--color1, #e1a230)" d="M16 0l4.321 11.679 11.679 4.321-11.679 4.321-4.321 11.679-4.321-11.679-11.679-4.321 11.679-4.321 4.321-11.679z"></path>
</symbol>

<symbol id="icon-stars" viewBox="0 0 32 32">
<path fill="#e1a230" style="fill: var(--color1, #e1a230)" d="M16 0l4.321 11.679 11.679 4.321-11.679 4.321-4.321 11.679-4.321-11.679-11.679-4.321 11.679-4.321 4.321-11.679z"></path>
</symbol>

<symbol id="icon-arrow" viewBox="0 0 24 24">
<path d="M7.406 8.578l4.594 4.594 4.594-4.594 1.406 1.406-6 6-6-6z"></path>
</symbol>

<!-- burgerMenu -->
<symbol id="icon-burger-menu" viewBox="0 0 48 32">
<path xmlns="http://www.w3.org/2000/svg" d="M4 31c-0.708 0-1.302-0.24-1.78-0.72s-0.718-1.073-0.72-1.78c-0.002-0.707 0.238-1.3 0.72-1.78s1.075-0.72 1.78-0.72h40c0.708 0 1.303 0.24 1.783 0.72s0.719 1.073 0.717 1.78c-0.002 0.707-0.242 1.301-0.72 1.782s-1.072 0.721-1.78 0.718h-40zM4 18.5c-0.708 0-1.302-0.24-1.78-0.72s-0.718-1.073-0.72-1.78c-0.002-0.707 0.238-1.3 0.72-1.78s1.075-0.72 1.78-0.72h40c0.708 0 1.303 0.24 1.783 0.72s0.719 1.073 0.717 1.78c-0.002 0.707-0.242 1.301-0.72 1.782s-1.072 0.721-1.78 0.718h-40zM4 6c-0.708 0-1.302-0.24-1.78-0.72s-0.718-1.073-0.72-1.78c-0.002-0.707 0.238-1.3 0.72-1.78s1.075-0.72 1.78-0.72h40c0.708 0 1.303 0.24 1.783 0.72s0.719 1.073 0.717 1.78c-0.002 0.707-0.242 1.301-0.72 1.782s-1.072 0.721-1.78 0.718h-40z"></path>
</symbol>

<symbol id="icon-close" viewBox="0 0 32 32">
<path d="M29.855 5.761c0.244-0.236 0.439-0.518 0.573-0.829s0.205-0.647 0.208-0.986c0.003-0.339-0.061-0.676-0.19-0.99s-0.318-0.6-0.558-0.84c-0.24-0.24-0.525-0.43-0.839-0.559s-0.651-0.193-0.99-0.191-0.675 0.073-0.986 0.207c-0.312 0.134-0.594 0.328-0.83 0.572l-10.243 10.239-10.239-10.239c-0.234-0.251-0.516-0.452-0.83-0.592s-0.652-0.215-0.995-0.221c-0.343-0.006-0.684 0.057-1.002 0.186s-0.607 0.32-0.85 0.563c-0.243 0.243-0.434 0.532-0.563 0.85s-0.192 0.659-0.186 1.002c0.006 0.343 0.081 0.682 0.221 0.995s0.341 0.596 0.592 0.83l10.232 10.243-10.239 10.239c-0.451 0.484-0.697 1.125-0.685 1.787s0.28 1.294 0.748 1.762c0.468 0.468 1.1 0.737 1.762 0.748s1.303-0.234 1.787-0.685l10.246-10.239 10.239 10.243c0.484 0.451 1.125 0.697 1.787 0.686s1.294-0.28 1.762-0.748c0.468-0.468 0.737-1.1 0.748-1.762s-0.234-1.303-0.686-1.787l-10.232-10.243 10.236-10.239z"></path>
</symbol>


</defs>
</svg>