<svg aria-hidden="true" style="position: absolute; width: 0; height: 0; overflow: hidden;" version="1.1" xmlns="http://www.w3.org/2000/svg" xmlns:xlink="http://www.w3.org/1999/xlink">
<defs>
<symbol id="logo-pdp" viewBox="0 0 223 37">
<path d="M160.382 16.9256C157.449 16.9256 155.23 16.39 153.304 14.9361C151.417 13.5205 150.384 11.6203 150.269 9.24829C150.167 7.19506 150.664 5.33312 151.939 3.71349C153.138 2.19589 154.732 1.26492 156.582 0.780304C159.425 0.0533836 162.231 0.193667 164.884 1.51998C167.154 2.64224 168.684 4.42766 169.22 6.92725C170.1 11.0082 168.25 14.6428 164.131 16.1859C162.741 16.7088 161.3 16.9383 160.369 16.9256H160.382ZM159.795 13.4185C159.91 13.4185 160.038 13.4185 160.152 13.4185C161.555 13.3675 162.881 13.0614 163.991 12.156C166.312 10.2685 165.904 6.32786 163.239 4.81025C161.581 3.86653 159.808 3.75175 157.997 4.1726C155.497 4.74648 153.878 6.63393 154.133 9.33756C154.248 10.5874 154.834 11.5821 155.855 12.309C157.028 13.138 158.367 13.4058 159.783 13.4058L159.795 13.4185Z" fill="white"/>
<path d="M42.4805 16.594V0.742008C42.5698 0.729255 42.6591 0.703749 42.7356 0.703749C45.5667 0.703749 48.3979 0.690996 51.2291 0.742008C52.7722 0.767514 54.277 1.1246 55.6544 1.86427C57.7459 2.99929 58.8809 4.79746 59.2507 7.10575C59.544 8.92943 59.3527 10.7021 58.4728 12.3345C57.376 14.3622 55.6289 15.561 53.4353 16.1731C52.4024 16.4664 51.3566 16.594 50.2854 16.5812C47.824 16.5812 45.3627 16.5812 42.9014 16.5812H42.4678L42.4805 16.594ZM46.3064 4.17256V13.0997C46.9951 13.0997 47.6455 13.0997 48.3086 13.0997C49.5202 13.0997 50.719 13.1507 51.9177 12.9084C52.9507 12.6916 53.8945 12.3217 54.5959 11.4928C55.3866 10.5746 55.5779 9.47781 55.5013 8.31728C55.3866 6.54462 54.5704 5.24381 52.8487 4.60616C51.9688 4.27459 51.0633 4.17256 50.1451 4.15981C48.9846 4.15981 47.824 4.15981 46.6508 4.15981C46.5487 4.15981 46.434 4.15981 46.3192 4.17256H46.3064Z" fill="white"/>
<path d="M78.9922 16.5941V0.742086C79.0687 0.742086 79.1452 0.703827 79.2217 0.703827C82.0657 0.703827 84.9096 0.703827 87.7535 0.742086C89.1563 0.767592 90.5209 1.07366 91.7962 1.68581C93.7091 2.60402 94.9717 4.08337 95.5328 6.14935C96.0812 8.17708 96.0302 10.1665 95.0992 12.0795C94.0407 14.273 92.217 15.5483 89.9088 16.1987C88.863 16.492 87.8045 16.6068 86.7205 16.6068C84.2847 16.6068 81.8489 16.6068 79.413 16.6068H78.9922V16.5941ZM82.7926 13.087C82.8691 13.087 82.9329 13.0997 82.9966 13.0997C84.2337 13.0997 85.4835 13.138 86.7205 13.087C87.4602 13.0615 88.1999 12.9339 88.9268 12.7682C89.8832 12.5386 90.7505 12.0795 91.2861 11.2123C92.2681 9.65643 92.2425 8.02404 91.4646 6.41717C90.8015 5.03984 89.5134 4.44045 88.0978 4.31292C86.3762 4.15989 84.629 4.2109 82.9074 4.17264C82.8819 4.17264 82.8436 4.19815 82.7926 4.2109V13.087Z" fill="white"/>
<path d="M213.218 9.93695V13.0359C213.358 13.0359 213.485 13.0487 213.613 13.0487C216.61 13.0487 219.607 13.0487 222.604 13.0487C222.923 13.0487 223.012 13.1507 222.999 13.4568C222.974 14.4132 222.986 15.3697 222.999 16.3134C222.999 16.5813 222.91 16.645 222.655 16.645C218.344 16.645 214.047 16.645 209.736 16.645C209.634 16.645 209.545 16.645 209.43 16.6195V0.754791H222.719V4.14709H213.218V6.93999H221.558V9.92419H213.218V9.93695Z" fill="white"/>
<path d="M37.226 9.88596H28.8346V13.0232H38.5524V16.5813H25.0342V0.729309H38.3356V4.14711H28.8346V6.92726C28.9749 6.92726 29.1024 6.92726 29.2299 6.92726C31.7678 6.92726 34.3056 6.92726 36.8435 6.92726C37.1368 6.92726 37.2388 6.99103 37.2388 7.30985C37.2133 8.04953 37.2388 8.80195 37.2388 9.54163C37.2388 9.64365 37.2388 9.75843 37.2388 9.88596H37.226Z" fill="white"/>
<path d="M99.7283 0.729309H112.991V4.14711H103.516V6.92726H103.911C106.436 6.92726 108.961 6.92726 111.487 6.92726C111.805 6.92726 111.907 7.00378 111.895 7.32261C111.869 8.06228 111.895 8.7892 111.895 9.52887C111.895 9.6309 111.895 9.74567 111.882 9.88596H103.516V13.0232H113.234V16.5685H99.7283V0.729309Z" fill="white"/>
<path d="M184.982 0.754757H188.77C188.77 0.882287 188.783 0.997064 188.783 1.11184C188.783 4.24908 188.783 7.38631 188.783 10.5235C188.783 11.8244 188.528 13.0741 187.762 14.1709C186.908 15.3952 185.709 16.1349 184.294 16.5302C181.615 17.2699 178.95 17.2699 176.361 16.1859C174.117 15.2422 172.905 13.4822 172.854 11.0719C172.778 7.70514 172.829 4.33835 172.829 0.971558C172.829 0.907793 172.841 0.844028 172.854 0.754757H176.578C176.578 0.89504 176.591 1.02257 176.591 1.16285C176.591 4.10879 176.629 7.06749 176.591 10.0134C176.553 12.0156 177.649 13.0614 179.294 13.3547C180.582 13.5843 181.871 13.597 183.12 13.1124C184.179 12.7043 184.804 11.9264 184.944 10.7786C184.97 10.498 184.982 10.2047 184.982 9.92416C184.982 7.00372 184.982 4.08329 184.982 1.17561C184.982 1.04808 184.982 0.907793 184.982 0.742004V0.754757Z" fill="white"/>
<path d="M137.006 11.5056V16.5813H132.989V0.742086C133.053 0.742086 133.129 0.703827 133.193 0.703827C136.113 0.703827 139.034 0.703827 141.954 0.729333C142.834 0.729333 143.701 0.920628 144.517 1.26496C145.869 1.83884 146.685 2.85908 147.004 4.28742C147.298 5.62648 147.272 6.96555 146.839 8.2791C146.316 9.86048 145.155 10.7914 143.574 11.174C142.809 11.3526 142.018 11.4418 141.227 11.4801C139.952 11.5311 138.677 11.4929 137.401 11.4929C137.287 11.4929 137.159 11.4929 136.993 11.4929L137.006 11.5056ZM137.019 8.08781C137.108 8.08781 137.185 8.11332 137.261 8.11332C138.562 8.11332 139.875 8.11332 141.176 8.11332C141.508 8.11332 141.827 8.0623 142.145 7.98579C142.821 7.83275 143.306 7.46291 143.472 6.7615C143.548 6.44267 143.535 6.08559 143.523 5.75401C143.472 5.02709 143.038 4.55523 142.362 4.37669C141.878 4.24916 141.367 4.19815 140.87 4.18539C139.697 4.15989 138.524 4.18539 137.35 4.18539C137.248 4.18539 137.146 4.18539 137.019 4.19815V8.10056V8.08781Z" fill="white"/>
<path d="M0 0.729349C0.0892709 0.729349 0.153036 0.716596 0.216801 0.716596C3.12448 0.716596 6.03217 0.703843 8.93985 0.754855C9.73053 0.767608 10.5467 0.971656 11.3119 1.21396C12.651 1.66032 13.5182 2.60404 13.9008 3.96861C14.2961 5.35869 14.2834 6.76151 13.8625 8.15159C13.3651 9.79673 12.2046 10.7915 10.5722 11.1868C9.80705 11.3781 8.99086 11.4674 8.20017 11.4929C6.92487 11.5439 5.64958 11.5056 4.37428 11.5056C4.2595 11.5056 4.14472 11.5056 3.97893 11.5056V16.5813H0V0.729349ZM4.01719 8.08783C4.10646 8.08783 4.18298 8.11333 4.2595 8.11333C5.5348 8.11333 6.8101 8.11333 8.07264 8.11333C8.42973 8.11333 8.79956 8.06232 9.1439 7.9858C10.0111 7.79451 10.5085 7.18236 10.5467 6.31516C10.585 5.1929 10.2279 4.60626 9.25867 4.3512C8.81232 4.23642 8.3277 4.18541 7.8686 4.17266C6.69532 4.14715 5.52205 4.17266 4.34877 4.17266C4.24675 4.17266 4.13197 4.17266 4.01719 4.17266V8.10058V8.08783Z" fill="white"/>
<path d="M192.583 0.742004H196.345V13.0869H205.629C205.629 13.2144 205.655 13.3037 205.655 13.393C205.655 14.3622 205.655 15.3187 205.655 16.2879C205.655 16.5302 205.604 16.6322 205.323 16.6322C201.165 16.6322 197.021 16.6322 192.863 16.6322C192.583 16.6322 192.544 16.5302 192.544 16.2879C192.544 11.2122 192.544 6.13652 192.544 1.06083C192.544 0.958805 192.544 0.869534 192.57 0.742004H192.583Z" fill="white"/>
<path d="M21.1569 0.729309V16.5685H17.3948V0.729309H21.1569Z" fill="white"/>
<path d="M133.308 31.8466C133.308 31.8466 133.346 31.8849 133.359 31.8849C134.443 32.1527 134.915 32.6756 134.953 33.6065C134.991 34.7288 134.443 35.545 133.41 35.8511C133.091 35.9531 132.747 36.0041 132.402 36.0041C131.012 36.0169 129.609 36.0041 128.219 36.0041C128.168 36.0041 128.117 36.0041 128.015 35.9786C128.015 35.8638 128.002 35.749 128.002 35.6343C128.002 33.2367 128.002 30.8264 128.002 28.4288C128.002 28.1483 128.053 28.0462 128.36 28.0462C129.711 28.0717 131.063 28.0462 132.415 28.0972C133.473 28.1228 134.264 28.7604 134.455 29.6404C134.66 30.5586 134.315 31.2217 133.32 31.8211L133.308 31.8466ZM128.882 35.2007C130.17 35.2007 131.42 35.2262 132.657 35.1879C132.938 35.1879 133.257 35.0221 133.499 34.8563C134.022 34.512 134.175 33.9764 134.06 33.377C133.958 32.8031 133.537 32.5098 132.989 32.4078C132.683 32.3567 132.377 32.3185 132.071 32.3185C131.101 32.3185 130.132 32.3185 129.176 32.3185C129.086 32.3185 128.984 32.3312 128.882 32.344V35.2134V35.2007ZM128.882 28.9389V31.6043C130.005 31.6043 131.101 31.6298 132.198 31.6043C132.785 31.5788 133.333 31.3875 133.55 30.7371C133.831 29.8444 133.384 29.041 132.428 28.9772C131.267 28.8879 130.081 28.9517 128.895 28.9517L128.882 28.9389Z" fill="white"/>
<path d="M97.4585 28.11C97.5478 28.11 97.6115 28.0845 97.6753 28.0845C98.9889 28.0845 100.315 28.0845 101.629 28.1228C103.746 28.1993 105.238 29.6531 105.34 31.6936C105.455 33.9891 104.154 35.6853 101.986 35.9531C100.94 36.0806 99.8561 36.0169 98.7976 36.0424C98.364 36.0424 97.9176 36.0424 97.4713 36.0424V28.1228L97.4585 28.11ZM98.3257 28.8369V35.2262C99.3077 35.2262 100.277 35.2517 101.246 35.2262C103.389 35.1369 104.651 33.6448 104.409 31.5278C104.269 30.2525 103.401 29.2195 102.139 29.0537C100.889 28.8879 99.6265 28.9134 98.3257 28.8497V28.8369Z" fill="white"/>
<path d="M69.3768 27.957C70.8817 28.0207 72.361 28.6584 73.1517 30.3545C74.2485 32.7138 73.1772 35.8001 69.7594 36.2082C68.8157 36.3229 67.8975 36.2209 67.0175 35.8511C65.1811 35.0731 64.3394 33.3515 64.6837 31.362C65.0536 29.245 66.7752 27.9442 69.3768 27.957ZM72.6543 32.1782C72.6543 30.7499 71.9402 29.6149 70.6776 29.092C69.7722 28.7222 68.8157 28.6711 67.872 28.939C66.5584 29.3088 65.7677 30.1887 65.5509 31.5151C65.3341 32.8669 65.6912 34.0529 66.9027 34.8436C67.7699 35.4047 68.7519 35.4812 69.7594 35.3665C71.4938 35.1752 72.6671 33.9126 72.6671 32.1782H72.6543Z" fill="white"/>
<path d="M77.3979 36.004V28.1227C77.8953 28.0461 78.2652 28.0844 78.6222 28.518C80.2929 30.5075 82.0018 32.4714 83.6979 34.4354C83.7489 34.4991 83.8127 34.5629 83.9402 34.6904V28.1227H84.7819V36.004C84.3738 36.0805 84.0423 36.0678 83.7107 35.6852C81.9508 33.6574 80.1653 31.6552 78.3799 29.6403C78.3544 29.6147 78.3289 29.602 78.2652 29.5382V36.0168H77.3979V36.004Z" fill="white"/>
<path d="M119.266 7.33533H119.623C121.97 7.33533 124.329 7.33533 126.676 7.33533C126.995 7.33533 127.097 7.41185 127.084 7.74342C127.058 8.35557 127.084 8.96771 127.084 9.57985V9.94969H119.279V7.34808L119.266 7.33533Z" fill="white"/>
<path d="M65.3591 7.36087H73.1512V9.93698H65.3591V7.36087Z" fill="white"/>
<path d="M110.249 35.2389H115.695V36.0041H109.395V28.11H115.58V28.8879H110.249V31.6043H114.955V32.3057H110.262V35.2389H110.249Z" fill="white"/>
<path d="M184.664 36.0041V28.11H190.862V28.8624H185.518V31.5916H190.224C190.249 31.6681 190.262 31.7063 190.262 31.7446C190.288 32.1187 190.113 32.3057 189.739 32.3057C188.349 32.3057 186.946 32.3057 185.531 32.3057V35.2262H190.951V36.0041H184.664Z" fill="white"/>
<path d="M145.665 28.11V28.8752H140.334V31.5916H145.065V32.3057H140.334V35.2262H145.78V36.0041H139.492V28.11H145.665Z" fill="white"/>
<path d="M31.9082 34.7416C32.1633 34.4865 32.3418 34.308 32.5203 34.1167C32.5586 34.1294 32.5969 34.1422 32.6096 34.1677C33.4003 35.5195 35.7341 35.7618 36.9839 35.2134C37.7363 34.8818 38.0424 34.2187 37.8383 33.4407C37.7363 33.0709 37.5068 32.8031 37.1369 32.7266C36.5375 32.599 35.9254 32.5098 35.326 32.4205C34.8414 32.344 34.344 32.293 33.8722 32.1782C32.9284 31.9486 32.4056 31.3875 32.3035 30.5841C32.1888 29.6659 32.5841 28.8879 33.4258 28.4288C34.3313 27.9315 35.3133 27.8932 36.308 28.008C36.9839 28.0972 37.6088 28.3013 38.1827 28.6584C38.2975 28.7221 38.3995 28.8114 38.527 28.9007C38.374 29.1302 38.2337 29.347 38.0934 29.5511C37.7108 29.347 37.3792 29.1175 37.0094 28.9772C36.0019 28.5946 34.9689 28.4926 33.9869 29.041C33.7064 29.2068 33.4386 29.5001 33.2855 29.7934C32.9412 30.5076 33.2345 31.1962 34.0124 31.3875C34.6884 31.5533 35.3898 31.6043 36.0784 31.7191C36.4993 31.7829 36.9329 31.8339 37.341 31.9486C38.629 32.3312 39.1391 33.7851 38.425 34.9839C38.1189 35.494 37.6598 35.8001 37.0987 35.9531C35.6703 36.3612 34.2675 36.3229 32.9539 35.596C32.5714 35.3792 32.2653 35.0349 31.9082 34.7416Z" fill="white"/>
<path d="M161.951 28.1355C161.951 28.1355 162.002 28.0972 162.015 28.0972C162.533 28.0292 162.793 28.2587 162.793 28.7859C162.793 30.1887 162.805 31.5915 162.793 32.9943C162.78 34.3844 163.647 35.1113 164.642 35.3154C165.547 35.4939 166.453 35.5067 167.307 35.0603C168.072 34.665 168.455 34.0273 168.468 33.1729C168.481 31.6298 168.468 30.0867 168.468 28.5308C168.468 28.4033 168.468 28.2757 168.468 28.11H169.335C169.335 28.2247 169.348 28.3523 169.348 28.4798C169.348 29.9464 169.348 31.413 169.348 32.8923C169.348 34.8308 168.442 35.8765 166.529 36.1826C165.7 36.3101 164.884 36.2591 164.081 36.0423C162.716 35.6725 161.951 34.7033 161.913 33.2239C161.874 31.5788 161.913 29.9336 161.913 28.2885C161.913 28.2375 161.926 28.1865 161.938 28.1355H161.951Z" fill="white"/>
<path d="M42.1871 36.0295C42.5314 35.3791 42.8502 34.7925 43.169 34.2186C44.2275 32.2546 45.2988 30.2907 46.3573 28.3267C46.4721 28.1227 46.6124 28.0844 46.8037 28.0972C46.9949 28.1099 47.1735 28.0589 47.301 28.3012C48.6656 30.8391 50.0557 33.3642 51.4202 35.8893C51.433 35.9148 51.4457 35.953 51.4712 36.0423C51.1779 36.0423 50.8974 36.0678 50.6168 36.0423C50.5275 36.0423 50.4383 35.902 50.3872 35.8127C50.0557 35.2133 49.7241 34.6012 49.4053 33.9891C49.316 33.8105 49.2012 33.734 48.9972 33.7468C47.5433 33.7468 46.1022 33.7468 44.6484 33.7468C44.4443 33.7468 44.3296 33.7978 44.2403 33.9891C43.9342 34.5884 43.6027 35.1623 43.3093 35.7617C43.1946 36.004 43.0415 36.1061 42.7737 36.0805C42.5952 36.055 42.4166 36.0805 42.1743 36.0805L42.1871 36.0295ZM48.9589 33.0836C48.232 31.7573 47.5433 30.4947 46.8164 29.1684C46.0895 30.5075 45.4008 31.77 44.6994 33.0836H48.9589Z" fill="white"/>
<path d="M158.647 36.0296C158.341 36.0296 158.086 36.0551 157.844 36.0296C157.742 36.0168 157.614 35.902 157.563 35.8128C157.232 35.2134 156.913 34.6267 156.594 34.0146C156.492 33.8106 156.365 33.7213 156.11 33.7213C154.681 33.734 153.253 33.7213 151.825 33.7213C151.595 33.7213 151.468 33.7978 151.365 34.0018C151.072 34.5885 150.741 35.1624 150.447 35.749C150.332 35.9786 150.192 36.0806 149.937 36.0551C149.759 36.0296 149.567 36.0551 149.312 36.0551C149.631 35.4812 149.912 34.9456 150.192 34.4227C151.289 32.4077 152.373 30.3927 153.457 28.3778C153.572 28.1737 153.699 28.0972 153.916 28.11C154.146 28.11 154.311 28.11 154.452 28.365C155.791 30.8391 157.143 33.3132 158.494 35.7873C158.533 35.851 158.558 35.9275 158.622 36.0551L158.647 36.0296ZM153.98 29.1685C153.253 30.5075 152.564 31.7701 151.863 33.0709H156.11C155.395 31.7701 154.707 30.5075 153.98 29.1685Z" fill="white"/>
<path d="M180.519 28.8879H177.446V36.0041H176.553V28.9007H173.454V28.0845H173.862C175.915 28.0845 177.968 28.0845 180.022 28.0845C180.608 28.0845 180.545 28.008 180.545 28.6074C180.545 28.6839 180.545 28.7604 180.532 28.8879H180.519Z" fill="white"/>
<path d="M61.674 35.2006V36.004H55.5908V28.1227H56.4453V35.2006H61.674Z" fill="white"/>
<path d="M186.398 27.6891C186.398 27.6891 186.309 27.6125 186.296 27.587C186.232 27.5105 186.181 27.4213 186.092 27.2937C187.342 26.3628 188.592 25.4318 189.88 24.4753C190.033 24.6921 190.173 24.8962 190.339 25.1385C189.012 25.9929 187.712 26.8346 186.398 27.6763V27.6891Z" fill="white"/>
</symbol>
</defs>
</svg>
