<svg aria-hidden="true" style="position: absolute; width: 0; height: 0; overflow: hidden;" version="1.1" xmlns="http://www.w3.org/2000/svg" xmlns:xlink="http://www.w3.org/1999/xlink">
<defs>
<symbol id="logo-pdp" viewBox="0 0 223 37">
<path d="M160.382 16.9256C157.449 16.9256 155.23 16.39 153.304 14.9361C151.417 13.5205 150.384 11.6203 150.269 9.24829C150.167 7.19506 150.664 5.33312 151.939 3.71349C153.138 2.19589 154.732 1.26492 156.582 0.780304C159.425 0.0533836 162.231 0.193667 164.884 1.51998C167.154 2.64224 168.684 4.42766 169.22 6.92725C170.1 11.0082 168.25 14.6428 164.131 16.1859C162.741 16.7088 161.3 16.9383 160.369 16.9256H160.382ZM159.795 13.4185C159.91 13.4185 160.038 13.4185 160.152 13.4185C161.555 13.3675 162.881 13.0614 163.991 12.156C166.312 10.2685 165.904 6.32786 163.239 4.81025C161.581 3.86653 159.808 3.75175 157.997 4.1726C155.497 4.74648 153.878 6.63393 154.133 9.33756C154.248 10.5874 154.834 11.5821 155.855 12.309C157.028 13.138 158.367 13.4058 159.783 13.4058L159.795 13.4185Z" fill="white"/>
<path d="M42.4805 16.594V0.742008C42.5698 0.729255 42.6591 0.703749 42.7356 0.703749C45.5667 0.703749 48.3979 0.690996 51.2291 0.742008C52.7722 0.767514 54.277 1.1246 55.6544 1.86427C57.7459 2.99929 58.8809 4.79746 59.2507 7.10575C59.544 8.92943 59.3527 10.7021 58.4728 12.3345C57.376 14.3622 55.6289 15.561 53.4353 16.1731C52.4024 16.4664 51.3566 16.594 50.2854 16.5812C47.824 16.5812 45.3627 16.5812 42.9014 16.5812H42.4678L42.4805 16.594ZM46.3064 4.17256V13.0997C46.9951 13.0997 47.6455 13.0997 48.3086 13.0997C49.5202 13.0997 50.719 13.1507 51.9177 12.9084C52.9507 12.6916 53.8945 12.3217 54.5959 11.4928C55.3866 10.5746 55.5779 9.47781 55.5013 8.31728C55.3866 6.54462 54.5704 5.24381 52.8487 4.60616C51.9688 4.27459 51.0633 4.17256 50.1451 4.15981C48.9846 4.15981 47.824 4.15981 46.6508 4.15981C46.5487 4.15981 46.434 4.15981 46.3192 4.17256H46.3064Z" fill="white"/>
<path d="M78.9922 16.5941V0.742086C79.0687 0.742086 79.1452 0.703827 79.2217 0.703827C82.0657 0.703827 84.9096 0.703827 87.7535 0.742086C89.1563 0.767592 90.5209 1.07366 91.7962 1.68581C93.7091 2.60402 94.9717 4.08337 95.5328 6.14935C96.0812 8.17708 96.0302 10.1665 95.0992 12.0795C94.0407 14.273 92.217 15.5483 89.9088 16.1987C88.863 16.492 87.8045 16.6068 86.7205 16.6068C84.2847 16.6068 81.8489 16.6068 79.413 16.6068H78.9922V16.5941ZM82.7926 13.087C82.8691 13.087 82.9329 13.0997 82.9966 13.0997C84.2337 13.0997 85.4835 13.138 86.7205 13.087C87.4602 13.0615 88.1999 12.9339 88.9268 12.7682C89.8832 12.5386 90.7505 12.0795 91.2861 11.2123C92.2681 9.65643 92.2425 8.02404 91.4646 6.41717C90.8015 5.03984 89.5134 4.44045 88.0978 4.31292C86.3762 4.15989 84.629 4.2109 82.9074 4.17264C82.8819 4.17264 82.8436 4.19815 82.7926 4.2109V13.087Z" fill="white"/>
<path d="M213.218 9.93695V13.0359C213.358 13.0359 213.485 13.0487 213.613 13.0487C216.61 13.0487 219.607 13.0487 222.604 13.0487C222.923 13.0487 223.012 13.1507 222.999 13.4568C222.974 14.4132 222.986 15.3697 222.999 16.3134C222.999 16.5813 222.91 16.645 222.655 16.645C218.344 16.645 214.047 16.645 209.736 16.645C209.634 16.645 209.545 16.645 209.43 16.6195V0.754791H222.719V4.14709H213.218V6.93999H221.558V9.92419H213.218V9.93695Z" fill="white"/>
<path d="M37.226 9.88596H28.8346V13.0232H38.5524V16.5813H25.0342V0.729309H38.3356V4.14711H28.8346V6.92726C28.9749 6.92726 29.1024 6.92726 29.2299 6.92726C31.7678 6.92726 34.3056 6.92726 36.8435 6.92726C37.1368 6.92726 37.2388 6.99103 37.2388 7.30985C37.2133 8.04953 37.2388 8.80195 37.2388 9.54163C37.2388 9.64365 37.2388 9.75843 37.2388 9.88596H37.226Z" fill="white"/>
<path d="M99.7283 0.729309H112.991V4.14711H103.516V6.92726H103.911C106.436 6.92726 108.961 6.92726 111.487 6.92726C111.805 6.92726 111.907 7.00378 111.895 7.32261C111.869 8.06228 111.895 8.7892 111.895 9.52887C111.895 9.6309 111.895 9.74567 111.882 9.88596H103.516V13.0232H113.234V16.5685H99.7283V0.729309Z" fill="white"/>
<path d="M184.982 0.754757H188.77C188.77 0.882287 188.783 0.997064 188.783 1.11184C188.783 4.24908 188.783 7.38631 188.783 10.5235C188.783 11.8244 188.528 13.0741 187.762 14.1709C186.908 15.3952 185.709 16.1349 184.294 16.5302C181.615 17.2699 178.95 17.2699 176.361 16.1859C174.117 15.2422 172.905 13.4822 172.854 11.0719C172.778 7.70514 172.829 4.33835 172.829 0.971558C172.829 0.907793 172.841 0.844028 172.854 0.754757H176.578C176.578 0.89504 176.591 1.02257 176.591 1.16285C176.591 4.10879 176.629 7.06749 176.591 10.0134C176.553 12.0156 177.649 13.0614 179.294 13.3547C180.582 13.5843 181.871 13.597 183.12 13.1124C184.179 12.7043 184.804 11.9264 184.944 10.7786C184.97 10.498 184.982 10.2047 184.982 9.92416C184.982 7.00372 184.982 4.08329 184.982 1.17561C184.982 1.04808 184.982 0.907793 184.982 0.742004V0.754757Z" fill="white"/>
<path d="M137.006 11.5056V16.5813H132.989V0.742086C133.053 0.742086 133.129 0.703827 133.193 0.703827C136.113 0.703827 139.034 0.703827 141.954 0.729333C142.834 0.729333 143.701 0.920628 144.517 1.26496C145.869 1.83884 146.685 2.85908 147.004 4.28742C147.298 5.62648 147.272 6.96555 146.839 8.2791C146.316 9.86048 145.155 10.7914 143.574 11.174C142.809 11.3526 142.018 11.4418 141.227 11.4801C139.952 11.5311 138.677 11.4929 137.401 11.4929C137.287 11.4929 137.159 11.4929 136.993 11.4929L137.006 11.5056ZM137.019 8.08781C137.108 8.08781 137.185 8.11332 137.261 8.11332C138.562 8.11332 139.875 8.11332 141.176 8.11332C141.508 8.11332 141.827 8.0623 142.145 7.98579C142.821 7.83275 143.306 7.46291 143.472 6.7615C143.548 6.44267 143.535 6.08559 143.523 5.75401C143.472 5.02709 143.038 4.55523 142.362 4.37669C141.878 4.24916 141.367 4.19815 140.87 4.18539C139.697 4.15989 138.524 4.18539 137.35 4.18539C137.248 4.18539 137.146 4.18539 137.019 4.19815V8.10056V8.08781Z" fill="white"/>
<path d="M0 0.729349C0.0892709 0.729349 0.153036 0.716596 0.216801 0.716596C3.12448 0.716596 6.03217 0.703843 8.93985 0.754855C9.73053 0.767608 10.5467 0.971656 11.3119 1.21396C12.651 1.66032 13.5182 2.60404 13.9008 3.96861C14.2961 5.35869 14.2834 6.76151 13.8625 8.15159C13.3651 9.79673 12.2046 10.7915 10.5722 11.1868C9.80705 11.3781 8.99086 11.4674 8.20017 11.4929C6.92487 11.5439 5.64958 11.5056 4.37428 11.5056C4.2595 11.5056 4.14472 11.5056 3.97893 11.5056V16.5813H0V0.729349ZM4.01719 8.08783C4.10646 8.08783 4.18298 8.11333 4.2595 8.11333C5.5348 8.11333 6.8101 8.11333 8.07264 8.11333C8.42973 8.11333 8.79956 8.06232 9.1439 7.9858C10.0111 7.79451 10.5085 7.18236 10.5467 6.31516C10.585 5.1929 10.2279 4.60626 9.25867 4.3512C8.81232 4.23642 8.3277 4.18541 7.8686 4.17266C6.69532 4.14715 5.52205 4.17266 4.34877 4.17266C4.24675 4.17266 4.13197 4.17266 4.01719 4.17266V8.10058V8.08783Z" fill="white"/>
<path d="M192.583 0.742004H196.345V13.0869H205.629C205.629 13.2144 205.655 13.3037 205.655 13.393C205.655 14.3622 205.655 15.3187 205.655 16.2879C205.655 16.5302 205.604 16.6322 205.323 16.6322C201.165 16.6322 197.021 16.6322 192.863 16.6322C192.583 16.6322 192.544 16.5302 192.544 16.2879C192.544 11.2122 192.544 6.13652 192.544 1.06083C192.544 0.958805 192.544 0.869534 192.57 0.742004H192.583Z" fill="white"/>
<path d="M21.1569 0.729309V16.5685H17.3948V0.729309H21.1569Z" fill="white"/>
<path d="M133.308 31.8466C133.308 31.8466 133.346 31.8849 133.359 31.8849C134.443 32.1527 134.915 32.6756 134.953 33.6065C134.991 34.7288 134.443 35.545 133.41 35.8511C133.091 35.9531 132.747 36.0041 132.402 36.0041C131.012 36.0169 129.609 36.0041 128.219 36.0041C128.168 36.0041 128.117 36.0041 128.015 35.9786C128.015 35.8638 128.002 35.749 128.002 35.6343C128.002 33.2367 128.002 30.8264 128.002 28.4288C128.002 28.1483 128.053 28.0462 128.36 28.0462C129.711 28.0717 131.063 28.0462 132.415 28.0972C133.473 28.1228 134.264 28.7604 134.455 29.6404C134.66 30.5586 134.315 31.2217 133.32 31.8211L133.308 31.8466ZM128.882 35.2007C130.17 35.2007 131.42 35.2262 132.657 35.1879C132.938 35.1879 133.257 35.0221 133.499 34.8563C134.022 34.512 134.175 33.9764 134.06 33.377C133.958 32.8031 133.537 32.5098 132.989 32.4078C132.683 32.3567 132.377 32.3185 132.071 32.3185C131.101 32.3185 130.132 32.3185 129.176 32.3185C129.086 32.3185 128.984 32.3312 128.882 32.344V35.2134V35.2007ZM128.882 28.9389V31.6043C130.005 31.6043 131.101 31.6298 132.198 31.6043C132.785 31.5788 133.333 31.3875 133.55 30.7371C133.831 29.8444 133.384 29.041 132.428 28.9772C131.267 28.8879 130.081 28.9517 128.895 28.9517L128.882 28.9389Z" fill="white"/>
<path d="M97.4585 28.11C97.5478 28.11 97.6115 28.0845 97.6753 28.0845C98.9889 28.0845 100.315 28.0845 101.629 28.1228C103.746 28.1993 105.238 29.6531 105.34 31.6936C105.455 33.9891 104.154 35.6853 101.986 35.9531C100.94 36.0806 99.8561 36.0169 98.7976 36.0424C98.364 36.0424 97.9176 36.0424 97.4713 36.0424V28.1228L97.4585 28.11ZM98.3257 28.8369V35.2262C99.3077 35.2262 100.277 35.2517 101.246 35.2262C103.389 35.1369 104.651 33.6448 104.409 31.5278C104.269 30.2525 103.401 29.2195 102.139 29.0537C100.889 28.8879 99.6265 28.9134 98.3257 28.8497V28.8369Z" fill="white"/>
<path d="M69.3768 27.957C70.8817 28.0207 72.361 28.6584 73.1517 30.3545C74.2485 32.7138 73.1772 35.8001 69.7594 36.2082C68.8157 36.3229 67.8975 36.2209 67.0175 35.8511C65.1811 35.0731 64.3394 33.3515 64.6837 31.362C65.0536 29.245 66.7752 27.9442 69.3768 27.957ZM72.6543 32.1782C72.6543 30.7499 71.9402 29.6149 70.6776 29.092C69.7722 28.7222 68.8157 28.6711 67.872 28.939C66.5584 29.3088 65.7677 30.1887 65.5509 31.5151C65.3341 32.8669 65.6912 34.0529 66.9027 34.8436C67.7699 35.4047 68.7519 35.4812 69.7594 35.3665C71.4938 35.1752 72.6671 33.9126 72.6671 32.1782H72.6543Z" fill="white"/>
<path d="M77.3979 36.004V28.1227C77.8953 28.0461 78.2652 28.0844 78.6222 28.518C80.2929 30.5075 82.0018 32.4714 83.6979 34.4354C83.7489 34.4991 83.8127 34.5629 83.9402 34.6904V28.1227H84.7819V36.004C84.3738 36.0805 84.0423 36.0678 83.7107 35.6852C81.9508 33.6574 80.1653 31.6552 78.3799 29.6403C78.3544 29.6147 78.3289 29.602 78.2652 29.5382V36.0168H77.3979V36.004Z" fill="white"/>
<path d="M119.266 7.33533H119.623C121.97 7.33533 124.329 7.33533 126.676 7.33533C126.995 7.33533 127.097 7.41185 127.084 7.74342C127.058 8.35557 127.084 8.96771 127.084 9.57985V9.94969H119.279V7.34808L119.266 7.33533Z" fill="white"/>
<path d="M65.3591 7.36087H73.1512V9.93698H65.3591V7.36087Z" fill="white"/>
<path d="M110.249 35.2389H115.695V36.0041H109.395V28.11H115.58V28.8879H110.249V31.6043H114.955V32.3057H110.262V35.2389H110.249Z" fill="white"/>
<path d="M184.664 36.0041V28.11H190.862V28.8624H185.518V31.5916H190.224C190.249 31.6681 190.262 31.7063 190.262 31.7446C190.288 32.1187 190.113 32.3057 189.739 32.3057C188.349 32.3057 186.946 32.3057 185.531 32.3057V35.2262H190.951V36.0041H184.664Z" fill="white"/>
<path d="M145.665 28.11V28.8752H140.334V31.5916H145.065V32.3057H140.334V35.2262H145.78V36.0041H139.492V28.11H145.665Z" fill="white"/>
<path d="M31.9082 34.7416C32.1633 34.4865 32.3418 34.308 32.5203 34.1167C32.5586 34.1294 32.5969 34.1422 32.6096 34.1677C33.4003 35.5195 35.7341 35.7618 36.9839 35.2134C37.7363 34.8818 38.0424 34.2187 37.8383 33.4407C37.7363 33.0709 37.5068 32.8031 37.1369 32.7266C36.5375 32.599 35.9254 32.5098 35.326 32.4205C34.8414 32.344 34.344 32.293 33.8722 32.1782C32.9284 31.9486 32.4056 31.3875 32.3035 30.5841C32.1888 29.6659 32.5841 28.8879 33.4258 28.4288C34.3313 27.9315 35.3133 27.8932 36.308 28.008C36.9839 28.0972 37.6088 28.3013 38.1827 28.6584C38.2975 28.7221 38.3995 28.8114 38.527 28.9007C38.374 29.1302 38.2337 29.347 38.0934 29.5511C37.7108 29.347 37.3792 29.1175 37.0094 28.9772C36.0019 28.5946 34.9689 28.4926 33.9869 29.041C33.7064 29.2068 33.4386 29.5001 33.2855 29.7934C32.9412 30.5076 33.2345 31.1962 34.0124 31.3875C34.6884 31.5533 35.3898 31.6043 36.0784 31.7191C36.4993 31.7829 36.9329 31.8339 37.341 31.9486C38.629 32.3312 39.1391 33.7851 38.425 34.9839C38.1189 35.494 37.6598 35.8001 37.0987 35.9531C35.6703 36.3612 34.2675 36.3229 32.9539 35.596C32.5714 35.3792 32.2653 35.0349 31.9082 34.7416Z" fill="white"/>
<path d="M161.951 28.1355C161.951 28.1355 162.002 28.0972 162.015 28.0972C162.533 28.0292 162.793 28.2587 162.793 28.7859C162.793 30.1887 162.805 31.5915 162.793 32.9943C162.78 34.3844 163.647 35.1113 164.642 35.3154C165.547 35.4939 166.453 35.5067 167.307 35.0603C168.072 34.665 168.455 34.0273 168.468 33.1729C168.481 31.6298 168.468 30.0867 168.468 28.5308C168.468 28.4033 168.468 28.2757 168.468 28.11H169.335C169.335 28.2247 169.348 28.3523 169.348 28.4798C169.348 29.9464 169.348 31.413 169.348 32.8923C169.348 34.8308 168.442 35.8765 166.529 36.1826C165.7 36.3101 164.884 36.2591 164.081 36.0423C162.716 35.6725 161.951 34.7033 161.913 33.2239C161.874 31.5788 161.913 29.9336 161.913 28.2885C161.913 28.2375 161.926 28.1865 161.938 28.1355H161.951Z" fill="white"/>
<path d="M42.1871 36.0295C42.5314 35.3791 42.8502 34.7925 43.169 34.2186C44.2275 32.2546 45.2988 30.2907 46.3573 28.3267C46.4721 28.1227 46.6124 28.0844 46.8037 28.0972C46.9949 28.1099 47.1735 28.0589 47.301 28.3012C48.6656 30.8391 50.0557 33.3642 51.4202 35.8893C51.433 35.9148 51.4457 35.953 51.4712 36.0423C51.1779 36.0423 50.8974 36.0678 50.6168 36.0423C50.5275 36.0423 50.4383 35.902 50.3872 35.8127C50.0557 35.2133 49.7241 34.6012 49.4053 33.9891C49.316 33.8105 49.2012 33.734 48.9972 33.7468C47.5433 33.7468 46.1022 33.7468 44.6484 33.7468C44.4443 33.7468 44.3296 33.7978 44.2403 33.9891C43.9342 34.5884 43.6027 35.1623 43.3093 35.7617C43.1946 36.004 43.0415 36.1061 42.7737 36.0805C42.5952 36.055 42.4166 36.0805 42.1743 36.0805L42.1871 36.0295ZM48.9589 33.0836C48.232 31.7573 47.5433 30.4947 46.8164 29.1684C46.0895 30.5075 45.4008 31.77 44.6994 33.0836H48.9589Z" fill="white"/>
<path d="M158.647 36.0296C158.341 36.0296 158.086 36.0551 157.844 36.0296C157.742 36.0168 157.614 35.902 157.563 35.8128C157.232 35.2134 156.913 34.6267 156.594 34.0146C156.492 33.8106 156.365 33.7213 156.11 33.7213C154.681 33.734 153.253 33.7213 151.825 33.7213C151.595 33.7213 151.468 33.7978 151.365 34.0018C151.072 34.5885 150.741 35.1624 150.447 35.749C150.332 35.9786 150.192 36.0806 149.937 36.0551C149.759 36.0296 149.567 36.0551 149.312 36.0551C149.631 35.4812 149.912 34.9456 150.192 34.4227C151.289 32.4077 152.373 30.3927 153.457 28.3778C153.572 28.1737 153.699 28.0972 153.916 28.11C154.146 28.11 154.311 28.11 154.452 28.365C155.791 30.8391 157.143 33.3132 158.494 35.7873C158.533 35.851 158.558 35.9275 158.622 36.0551L158.647 36.0296ZM153.98 29.1685C153.253 30.5075 152.564 31.7701 151.863 33.0709H156.11C155.395 31.7701 154.707 30.5075 153.98 29.1685Z" fill="white"/>
<path d="M180.519 28.8879H177.446V36.0041H176.553V28.9007H173.454V28.0845H173.862C175.915 28.0845 177.968 28.0845 180.022 28.0845C180.608 28.0845 180.545 28.008 180.545 28.6074C180.545 28.6839 180.545 28.7604 180.532 28.8879H180.519Z" fill="white"/>
<path d="M61.674 35.2006V36.004H55.5908V28.1227H56.4453V35.2006H61.674Z" fill="white"/>
<path d="M186.398 27.6891C186.398 27.6891 186.309 27.6125 186.296 27.587C186.232 27.5105 186.181 27.4213 186.092 27.2937C187.342 26.3628 188.592 25.4318 189.88 24.4753C190.033 24.6921 190.173 24.8962 190.339 25.1385C189.012 25.9929 187.712 26.8346 186.398 27.6763V27.6891Z" fill="white"/>
</symbol>
<symbol id="logo-lavande" viewBox="0 0 2048 1100">
<path transform="translate(0)" d="m0 0h2048v1099h-2048z" fill="#FEFB81"/>
<path transform="translate(1286,462)" d="m0 0h21l28 1 14 3 12 5 10 6 10 9 7 8 8 14 5 14 2 11v31l-4 18-8 17-12 15-13 10-13 6-15 4-9 1h-60v-172z" fill="#000000"/>
<path transform="translate(950,460)" d="m0 0h8l11 3 9 5 7 6 9 14 5 13 6 20 8-4 6-7 3-9 2-9 3-3 6-1 5 4 1 2-1 10-4 8-9 8-14 7h-4l25 93 3 8 4 3h8l5-5 1-3v-10l-4-17-7-22-2-11v-17l3-10 8-9 5-2h10l6 3 4 6 1 6-3 5-3 2-7-1-3-4-2-8-7 1-2 4v8l7 14 9 14 5 12 1 4v18l-4 12-6 8-6 5-6 3-5 1h-9l-13-4-11-8-8-11-6-13-1-3-4 10-6 10-9 9-10 6-9 3-6 1h-13l-14-3-10-5-10-9-7-11-4-16v-8l3-14 7-13 8-9 14-9 13-5 10-2h22l12 3-1-7-11-1-17-5-13-7-9-8-6-9-2-6v-13l5-10 8-7 7-3z" fill="#000000"/>
<path transform="translate(1126,462)" d="m0 0 5 1 14 21 19 29 27 41 13 20 1-111 28-1 1 1v171l-1 1h-24l-8-11-10-16-16-24-23-35-19-29-1 115h-28v-172z" fill="#000000"/>
<path transform="translate(705,462)" d="m0 0 5 1 5 12 17 47 40 110v3h-29l-3-5-12-34h-65l-14 38-1 1h-28l1-6 21-58 11-30 21-58 7-19 1-1z" fill="#000000"/>
<path transform="translate(1444,462)" d="m0 0h92v27h-79v46h71l-1 26h-70v47h80v27h-109v-172z" fill="#000000"/>
<path transform="translate(779,462)" d="m0 0 5 1 12 36 18 55 11 34 2-3 26-79 14-43 30-1 1 3-14 40-19 55-21 61-5 13-1 1h-26l-4-8-20-59-15-43-20-59v-3z" fill="#000000"/>
<path transform="translate(1298,489)" d="m0 0h32l12 3 9 5 10 9 6 10 4 10 2 11v24l-4 16-6 12-6 7-10 7-11 4-4 1h-34z" fill="#FEFB81"/>
<path transform="translate(531,462)" d="m0 0h7l1 1v145h55v26l-1 1h-81l-2-1-1-92v-42l1-37z" fill="#000000"/>
<path transform="translate(962,541)" d="m0 0h16l7 2 2 7 4 22v21l-4 13-7 11-7 7-10 5-4 1h-12l-9-4-8-9-4-11-1-5v-19l4-15 6-10 5-6 11-7z" fill="#FEFB81"/>
<path transform="translate(944,469)" d="m0 0h10l6 3 8 8 7 14 5 18 2 9v4l-18-4-12-5-10-7-6-7-4-9v-12l4-7 5-4z" fill="#FEFB81"/>
<path transform="translate(695,502)" d="m0 0 2 2 17 49 5 14v2h-47l3-11 19-53z" fill="#FEFB81"/>
</symbol>
<symbol id="logo-conciergepro" viewBox="0 0 75 61">
<path xmlns="http://www.w3.org/2000/svg" d="M23.0191 52.7365H23.3809C23.2538 53.5798 22.6133 54.1816 21.1466 54.1816C19.4891 54.1816 18.8878 53.412 18.8878 52.3963C18.8878 51.375 19.4891 50.6055 21.1466 50.6055C22.6133 50.6055 23.2538 51.2123 23.3809 52.0556H23.0191C22.892 51.4048 22.3591 50.9509 21.1466 50.9509C19.7336 50.9509 19.2446 51.5675 19.2446 52.3963C19.2446 53.2246 19.7336 53.8362 21.1466 53.8362C22.3591 53.8362 22.892 53.3873 23.0191 52.7365Z" fill="white"/>
<path xmlns="http://www.w3.org/2000/svg" d="M26.2984 50.6006C27.9558 50.6006 28.5572 51.3701 28.5572 52.3859C28.5572 53.4071 27.9558 54.1716 26.2984 54.1716C24.641 54.1716 24.0396 53.4071 24.0396 52.3859C24.0396 51.3701 24.641 50.6006 26.2984 50.6006ZM26.2984 53.8313C27.7114 53.8313 28.2003 53.2146 28.2003 52.3859C28.2003 51.5575 27.7114 50.946 26.2984 50.946C24.8854 50.946 24.3965 51.5575 24.3965 52.3859C24.3965 53.2146 24.8854 53.8313 26.2984 53.8313Z" fill="white"/>
<path xmlns="http://www.w3.org/2000/svg" d="M29.6747 50.6699L33.0923 53.6047V50.6699H33.4492V54.1225H33.1754L29.7578 51.1878V54.1225H29.396V50.6699H29.6747Z" fill="white"/>
<path xmlns="http://www.w3.org/2000/svg" d="M38.4268 52.7365H38.7886C38.6615 53.5798 38.021 54.1816 36.5543 54.1816C34.8968 54.1816 34.2954 53.412 34.2954 52.3963C34.2954 51.375 34.8968 50.6055 36.5543 50.6055C38.021 50.6055 38.6615 51.2123 38.7886 52.0556H38.4268C38.2997 51.4048 37.7668 50.9509 36.5543 50.9509C35.1413 50.9509 34.6524 51.5675 34.6524 52.3963C34.6524 53.2246 35.1413 53.8362 36.5543 53.8362C37.7668 53.8362 38.2997 53.3873 38.4268 52.7365Z" fill="white"/>
<path xmlns="http://www.w3.org/2000/svg" d="M39.9851 50.6699V54.1225H39.6233V50.6699H39.9851Z" fill="white"/>
<path xmlns="http://www.w3.org/2000/svg" d="M41.0032 54.1225V50.6699H44.5675V50.9808H41.365V52.2533H44.3961V52.5391H41.365V53.8117H44.5675V54.1225H41.0032Z" fill="white"/>
<path xmlns="http://www.w3.org/2000/svg" d="M45.41 50.6699H47.6837C48.769 50.6699 49.2043 51.1435 49.2043 51.8884C49.2043 52.4505 48.9548 52.8551 48.368 53.0225L49.2528 54.1225H48.8569L48.0256 53.0868C47.9184 53.0966 47.8057 53.1017 47.6837 53.1017H45.7718V54.1225H45.41V50.6699ZM45.7718 52.7959H47.6837C48.5149 52.7959 48.8471 52.4407 48.8471 51.8884C48.8471 51.3309 48.5149 50.9808 47.6837 50.9808H45.7718V52.7959Z" fill="white"/>
<path xmlns="http://www.w3.org/2000/svg" d="M53.9021 52.5537H51.907V52.2628H54.2541C54.2638 52.3071 54.2638 52.3514 54.2638 52.3961C54.2638 53.4169 53.6623 54.1814 52.0049 54.1814C50.3475 54.1814 49.746 53.4169 49.746 52.3961C49.746 51.3799 50.3475 50.6104 52.0049 50.6104C53.33 50.6104 53.9802 51.1035 54.1904 51.8186H53.7944C53.599 51.2811 53.0561 50.9212 52.0049 50.9212C50.592 50.9212 50.1031 51.5473 50.1031 52.3961C50.1031 53.2444 50.592 53.8705 52.0049 53.8705C53.33 53.8705 53.8434 53.3181 53.9021 52.5537Z" fill="white"/>
<path xmlns="http://www.w3.org/2000/svg" d="M55.1025 54.1225V50.6699H58.6667V50.9808H55.4643V52.2533H58.4957V52.5391H55.4643V53.8117H58.6667V54.1225H55.1025Z" fill="white"/>
<path xmlns="http://www.w3.org/2000/svg" d="M61.6247 50.6699H63.7908C64.8761 50.6699 65.311 51.1435 65.311 51.8884C65.311 52.6281 64.8761 53.1017 63.7908 53.1017H61.9865V54.1225H61.6247V50.6699ZM61.9865 52.7908H63.7908C64.6216 52.7908 64.9492 52.4407 64.9492 51.8884C64.9492 51.3309 64.6216 50.9808 63.7908 50.9808H61.9865V52.7908Z" fill="white"/>
<path xmlns="http://www.w3.org/2000/svg" d="M66.108 50.6699H68.3817C69.4671 50.6699 69.9019 51.1435 69.9019 51.8884C69.9019 52.4505 69.6529 52.8551 69.0661 53.0225L69.9509 54.1225H69.5549L68.7237 53.0868C68.6161 53.0966 68.5038 53.1017 68.3817 53.1017H66.4698V54.1225H66.108V50.6699ZM66.4698 52.7959H68.3817C69.2126 52.7959 69.5452 52.4407 69.5452 51.8884C69.5452 51.3309 69.2126 50.9808 68.3817 50.9808H66.4698V52.7959Z" fill="white"/>
<path xmlns="http://www.w3.org/2000/svg" d="M72.703 50.6006C74.3604 50.6006 74.9615 51.3701 74.9615 52.3859C74.9615 53.4071 74.3604 54.1716 72.703 54.1716C71.0456 54.1716 70.444 53.4071 70.444 52.3859C70.444 51.3701 71.0456 50.6006 72.703 50.6006ZM72.703 53.8313C74.1159 53.8313 74.6048 53.2146 74.6048 52.3859C74.6048 51.5575 74.1159 50.946 72.703 50.946C71.29 50.946 70.8012 51.5575 70.8012 52.3859C70.8012 53.2146 71.29 53.8313 72.703 53.8313Z" fill="white"/>
<path xmlns="http://www.w3.org/2000/svg" d="M19.0033 56.6387L19.8792 57.6776L20.7572 56.6387H20.8707V58.0704H20.7227V56.8696L19.8792 57.872L19.0378 56.8696V58.0704H18.8878V56.6387H19.0033Z" fill="white"/>
<path xmlns="http://www.w3.org/2000/svg" d="M21.2935 58.0704V56.6387H22.7716V56.7673H21.4435V57.2953H22.7006V57.4137H21.4435V57.9414H22.7716V58.0704H21.2935Z" fill="white"/>
<path xmlns="http://www.w3.org/2000/svg" d="M23.2711 57.2871H24.6539V56.6387H24.8019V58.0704H24.6539V57.4239H23.2711V58.0704H23.1211V56.6387H23.2711V57.2871Z" fill="white"/>
<path xmlns="http://www.w3.org/2000/svg" d="M26.5417 57.9332H27.5616V56.6387H27.7096V58.0704H25.2258V56.6387H25.3759V57.9332H26.3937V56.6387H26.5417V57.9332Z" fill="white"/>
<path xmlns="http://www.w3.org/2000/svg" d="M28.1305 58.0704V56.6387H29.6086V56.7673H28.2806V57.2953H29.5376V57.4137H28.2806V57.9414H29.6086V58.0704H28.1305Z" fill="white"/>
<path xmlns="http://www.w3.org/2000/svg" d="M31.4739 56.7798H30.7075V56.6387H32.3883V56.7798H31.6219V58.0704H31.4739V56.7798Z" fill="white"/>
<path xmlns="http://www.w3.org/2000/svg" d="M33.2584 58.0704H33.0881L33.4247 57.6615H33.372L32.5305 56.6387H32.6988L33.4835 57.5917L34.2661 56.6387H34.4344L33.2584 58.0704Z" fill="white"/>
<path xmlns="http://www.w3.org/2000/svg" d="M34.7042 56.6387H35.6024C36.0526 56.6387 36.233 56.8351 36.233 57.144C36.233 57.4506 36.0526 57.647 35.6024 57.647H34.8543V58.0704H34.7042V56.6387ZM34.8543 57.518H35.6024C35.9471 57.518 36.083 57.3729 36.083 57.144C36.083 56.9127 35.9471 56.7673 35.6024 56.7673H34.8543V57.518Z" fill="white"/>
<path xmlns="http://www.w3.org/2000/svg" d="M36.6818 57.1499H37.5354C37.9369 57.1499 38.1011 57.3279 38.1011 57.6101C38.1011 57.8924 37.9369 58.0704 37.5354 58.0704H36.5318V56.6387H37.9389V56.7673H36.6818V57.1499ZM36.6818 57.9516H37.5253C37.8314 57.9516 37.9511 57.8187 37.9511 57.6101C37.9511 57.4016 37.8314 57.2687 37.5253 57.2687H36.6818V57.9516Z" fill="white"/>
<path xmlns="http://www.w3.org/2000/svg" d="M39.2883 56.6104C39.9758 56.6104 40.2252 56.9295 40.2252 57.3505C40.2252 57.7743 39.9758 58.0911 39.2883 58.0911C38.6011 58.0911 38.3517 57.7743 38.3517 57.3505C38.3517 56.9295 38.6011 56.6104 39.2883 56.6104ZM39.2883 57.9499C39.8743 57.9499 40.0772 57.6943 40.0772 57.3505C40.0772 57.0071 39.8743 56.7534 39.2883 56.7534C38.7024 56.7534 38.4997 57.0071 38.4997 57.3505C38.4997 57.6943 38.7024 57.9499 39.2883 57.9499Z" fill="white"/>
<path xmlns="http://www.w3.org/2000/svg" d="M41.1723 56.7798H40.4056V56.6387H42.0867V56.7798H41.32V58.0704H41.1723V56.7798Z" fill="white"/>
<path xmlns="http://www.w3.org/2000/svg" d="M42.1857 58.3906H42.0622L42.1554 57.8994H42.3155L42.1857 58.3906Z" fill="white"/>
<path xmlns="http://www.w3.org/2000/svg" d="M43.7487 57.1499H44.6021C45.0035 57.1499 45.1679 57.3279 45.1679 57.6101C45.1679 57.8924 45.0035 58.0704 44.6021 58.0704H43.5983V56.6387H45.0055V56.7673H43.7487V57.1499ZM43.7487 57.9516H44.592C44.8982 57.9516 45.0179 57.8187 45.0179 57.6101C45.0179 57.4016 44.8982 57.2687 44.592 57.2687H43.7487V57.9516Z" fill="white"/>
<path xmlns="http://www.w3.org/2000/svg" d="M45.6416 56.6387V58.0704H45.4916V56.6387H45.6416Z" fill="white"/>
<path xmlns="http://www.w3.org/2000/svg" d="M46.3353 57.4486V56.6387H47.8947V58.0704H47.7443V56.7755H46.4833V57.4486C46.4833 57.8638 46.3597 58.0723 45.9665 58.0723C45.94 58.0723 45.9136 58.0723 45.8853 58.0704V57.9292C45.9074 57.9312 45.9299 57.9312 45.9521 57.9312C46.2482 57.9312 46.3353 57.7697 46.3353 57.4486Z" fill="white"/>
<path xmlns="http://www.w3.org/2000/svg" d="M49.2152 58.0704H48.3167V56.6387H48.4671V57.0621H49.2152C49.6652 57.0621 49.8459 57.2561 49.8459 57.565C49.8459 57.874 49.6652 58.0704 49.2152 58.0704ZM49.2152 57.1887H48.4671V57.9414H49.2152C49.5598 57.9414 49.6955 57.7963 49.6955 57.565C49.6955 57.3361 49.5598 57.1887 49.2152 57.1887Z" fill="white"/>
<path xmlns="http://www.w3.org/2000/svg" d="M51.492 57.9332H52.512V56.6387H52.6597V58.0704H50.1761V56.6387H50.3262V57.9332H51.3439V56.6387H51.492V57.9332Z" fill="white"/>
<path xmlns="http://www.w3.org/2000/svg" d="M53.081 58.0704V56.6387H54.5588V56.7673H53.231V57.2953H54.4881V57.4137H53.231V57.9414H54.5588V58.0704H53.081Z" fill="white"/>
<path xmlns="http://www.w3.org/2000/svg" d="M57.6206 57.2851L58.2225 56.6387H58.399L57.7422 57.3545L58.399 58.0704H58.2225L57.6206 57.4239H57.0933V58.0704H56.9452V57.4239H56.4183L55.8159 58.0704H55.6376L56.2966 57.3545L55.6376 56.6387H55.8159L56.4183 57.2851H56.9452V56.6387H57.0933V57.2851H57.6206Z" fill="white"/>
<path xmlns="http://www.w3.org/2000/svg" d="M58.8225 56.6387V57.8555L60.2398 56.6387H60.3532V58.0704H60.2052V56.8535L58.788 58.0704H58.6725V56.6387H58.8225Z" fill="white"/>
<path xmlns="http://www.w3.org/2000/svg" d="M61.4161 56.7798H60.6494V56.6387H62.3304V56.7798H61.5637V58.0704H61.4161V56.7798Z" fill="white"/>
<path xmlns="http://www.w3.org/2000/svg" d="M63.2631 56.7798H62.4968V56.6387H64.1779V56.7798H63.4111V58.0704H63.2631V56.7798Z" fill="white"/>
<path xmlns="http://www.w3.org/2000/svg" d="M64.9791 56.6387H65.9223V58.0704H65.7742V57.647H64.9791C64.9286 57.647 64.882 57.645 64.8373 57.6407L64.4926 58.0704H64.3286L64.6955 57.6144C64.4522 57.5447 64.3488 57.3769 64.3488 57.144C64.3488 56.8351 64.5291 56.6387 64.9791 56.6387ZM64.9791 57.5203H65.7742V56.7673H64.9791C64.6344 56.7673 64.4988 56.9127 64.4988 57.144C64.4988 57.3729 64.6344 57.5203 64.9791 57.5203Z" fill="white"/>
<path xmlns="http://www.w3.org/2000/svg" fill-rule="evenodd" clip-rule="evenodd" d="M19.2247 10.3713L19.2255 10.7779C19.2311 14.0342 19.2367 17.2907 19.2496 20.5471C19.2519 21.1238 19.0231 21.3471 18.4869 21.4141C17.5743 21.5282 16.6585 21.644 15.7594 21.8338C11.2417 22.7876 7.25306 24.7409 4.19796 28.3252C0.85919 32.2423 -0.238321 36.8823 0.0951456 41.9355C0.804949 52.6913 8.67496 60.4903 19.3634 60.9063C20.8614 60.9647 22.3609 60.9851 23.861 60.989V60.1747C21.461 60.241 19.0743 60.074 16.6983 59.6812C12.4877 58.9849 9.14749 57.0114 7.28054 52.9567C6.14501 50.4586 5.68374 47.923 5.40841 45.3415C5.15998 43.012 5.19204 40.6736 5.25496 38.3396C5.32572 35.7132 5.74968 33.133 6.66457 30.6621C8.31589 26.2026 11.5051 23.5493 16.1113 22.6085C16.7937 22.4692 17.4862 22.3756 18.1771 22.2836C19.1552 22.1533 19.2549 22.2396 19.2577 23.2136C19.2646 25.6353 19.2676 28.0571 19.2633 30.4788L19.2604 32.1636C19.2508 37.6256 19.2412 43.0877 19.2178 48.5495H23.8109C23.8049 48.3801 23.8017 48.2104 23.802 48.0402C23.8133 42.1025 23.8125 36.1645 23.8117 30.2267C23.8114 27.8855 23.811 25.5443 23.8115 23.2031C23.8117 22.0597 23.8157 22.0597 24.9823 22.0519C25.5573 22.0481 25.9924 22.0497 26.3278 22.051C26.4635 22.0515 26.5828 22.0519 26.6886 22.0519L32.066 22.0004C32.26 22.0004 32.5859 21.998 33.1787 21.8986C36.9577 21.2646 40.3836 19.8992 43.0334 16.9661C46.6078 13.0102 46.1251 6.95146 41.9706 3.63568C40.2312 2.2477 38.227 1.41905 36.106 0.848369C32.8587 -0.0253804 29.5388 -0.0153112 26.1323 0.0373456L19.9246 0.0401933C19.599 0.0401933 19.3759 0.0401933 19.2276 0.0713911V5.0042H19.2141C19.2185 6.79323 19.2216 8.58223 19.2247 10.3713ZM32.8775 1.11916C34.8386 1.48083 36.6379 2.17012 38.0392 3.67864C39.0728 4.8152 39.6095 6.06837 39.8679 7.44859C40.3385 9.96382 40.3944 12.4898 39.8422 14.9933C39.0623 18.5307 36.8319 20.5226 33.2446 20.978L33.1883 20.9851L33.0584 21.0018C32.4843 21.0755 31.9071 21.1496 31.331 21.1544C29.5427 21.1694 27.7542 21.167 25.9733 21.1645H25.9701L25.158 21.1635C24.7679 21.163 24.3782 21.1627 23.9891 21.1627C23.7756 20.9625 23.7906 20.7306 23.8051 20.5086C23.8071 20.4777 23.8091 20.4471 23.8105 20.4167C23.8115 20.3927 23.8122 20.3688 23.8122 20.3452C23.8089 14.2354 23.8113 8.12559 23.8159 2.01574C23.8167 0.913282 23.8261 0.91316 24.9408 0.898714L24.9483 0.898631C25.5177 0.891246 26.0873 0.87478 26.657 0.858315C28.7344 0.798228 30.8117 0.738146 32.8775 1.11916Z" fill="white"/>
</symbol>
<symbol id="logo-ulead" viewBox="0 0 133 42">
<path transform="translate(0)" d="m0 0h2048v1099h-2048z" fill="#FEFB81"/>
<path transform="translate(1286,462)" d="m0 0h21l28 1 14 3 12 5 10 6 10 9 7 8 8 14 5 14 2 11v31l-4 18-8 17-12 15-13 10-13 6-15 4-9 1h-60v-172z" fill="#000000"/>
<path transform="translate(950,460)" d="m0 0h8l11 3 9 5 7 6 9 14 5 13 6 20 8-4 6-7 3-9 2-9 3-3 6-1 5 4 1 2-1 10-4 8-9 8-14 7h-4l25 93 3 8 4 3h8l5-5 1-3v-10l-4-17-7-22-2-11v-17l3-10 8-9 5-2h10l6 3 4 6 1 6-3 5-3 2-7-1-3-4-2-8-7 1-2 4v8l7 14 9 14 5 12 1 4v18l-4 12-6 8-6 5-6 3-5 1h-9l-13-4-11-8-8-11-6-13-1-3-4 10-6 10-9 9-10 6-9 3-6 1h-13l-14-3-10-5-10-9-7-11-4-16v-8l3-14 7-13 8-9 14-9 13-5 10-2h22l12 3-1-7-11-1-17-5-13-7-9-8-6-9-2-6v-13l5-10 8-7 7-3z" fill="#000000"/>
<path transform="translate(1126,462)" d="m0 0 5 1 14 21 19 29 27 41 13 20 1-111 28-1 1 1v171l-1 1h-24l-8-11-10-16-16-24-23-35-19-29-1 115h-28v-172z" fill="#000000"/>
<path transform="translate(705,462)" d="m0 0 5 1 5 12 17 47 40 110v3h-29l-3-5-12-34h-65l-14 38-1 1h-28l1-6 21-58 11-30 21-58 7-19 1-1z" fill="#000000"/>
<path transform="translate(1444,462)" d="m0 0h92v27h-79v46h71l-1 26h-70v47h80v27h-109v-172z" fill="#000000"/>
<path transform="translate(779,462)" d="m0 0 5 1 12 36 18 55 11 34 2-3 26-79 14-43 30-1 1 3-14 40-19 55-21 61-5 13-1 1h-26l-4-8-20-59-15-43-20-59v-3z" fill="#000000"/>
<path transform="translate(1298,489)" d="m0 0h32l12 3 9 5 10 9 6 10 4 10 2 11v24l-4 16-6 12-6 7-10 7-11 4-4 1h-34z" fill="#FEFB81"/>
<path transform="translate(531,462)" d="m0 0h7l1 1v145h55v26l-1 1h-81l-2-1-1-92v-42l1-37z" fill="#000000"/>
<path transform="translate(962,541)" d="m0 0h16l7 2 2 7 4 22v21l-4 13-7 11-7 7-10 5-4 1h-12l-9-4-8-9-4-11-1-5v-19l4-15 6-10 5-6 11-7z" fill="#FEFB81"/>
<path transform="translate(944,469)" d="m0 0h10l6 3 8 8 7 14 5 18 2 9v4l-18-4-12-5-10-7-6-7-4-9v-12l4-7 5-4z" fill="#FEFB81"/>
<path transform="translate(695,502)" d="m0 0 2 2 17 49 5 14v2h-47l3-11 19-53z" fill="#FEFB81"/>
</symbol>
</defs>
</svg>
